<?xml version="1.0" standalone="no"?>
<!DOCTYPE svg PUBLIC "-//W3C//DTD SVG 20010904//EN"
 "http://www.w3.org/TR/2001/REC-SVG-20010904/DTD/svg10.dtd">
<svg version="1.0" xmlns="http://www.w3.org/2000/svg"
 width="626.000000pt" height="625.000000pt" viewBox="0 0 626.000000 625.000000"
 preserveAspectRatio="xMidYMid meet">

<g transform="translate(0.000000,625.000000) scale(0.100000,-0.100000)"
fill="#000000" stroke="none">
<path d="M2774 3889 c10 -39 9 -42 -17 -65 -15 -12 -27 -26 -27 -29 0 -3 22
-5 50 -5 46 0 55 -4 124 -62 42 -34 71 -65 65 -68 -5 -4 -2 -14 9 -23 16 -14
21 -15 37 -3 13 10 28 11 49 5 45 -13 110 -11 130 4 18 13 17 17 -18 71 -20
31 -52 66 -71 77 -20 12 -35 29 -35 39 0 11 -5 22 -11 25 -18 12 -82 10 -87
-3 -2 -7 -23 -12 -53 -12 -45 0 -54 4 -98 45 -26 25 -50 45 -53 45 -3 0 0 -18
6 -41z"/>
<path d="M2038 3850 c-19 -22 -35 -30 -58 -30 -28 0 -31 -2 -20 -15 7 -8 10
-22 6 -30 -5 -13 -2 -13 19 1 25 16 105 17 116 0 4 -5 13 -4 20 3 8 6 26 20
42 32 15 11 27 24 27 29 0 11 -77 33 -90 25 -5 -3 -11 -1 -15 5 -10 16 -19 12
-47 -20z"/>
<path d="M2410 3826 c6 -18 5 -28 -6 -36 -22 -19 -17 -27 14 -22 20 2 37 -4
58 -21 16 -13 39 -29 51 -36 13 -6 22 -17 20 -23 -1 -6 4 -13 11 -15 6 -3 12
0 12 5 0 5 22 7 48 4 68 -6 81 12 41 61 -16 19 -38 39 -49 42 -11 4 -20 13
-20 21 0 9 -11 14 -30 14 -16 0 -30 -4 -30 -10 0 -20 -63 -10 -96 15 l-34 26
10 -25z"/>
<path d="M3277 3771 c4 -15 -1 -27 -13 -36 -18 -14 -17 -14 8 -15 29 0 109
-63 105 -82 -1 -6 24 -12 61 -15 62 -4 63 -3 56 19 -4 13 -23 42 -43 65 -34
41 -38 42 -79 37 -38 -6 -47 -3 -72 21 -27 25 -28 26 -23 6z"/>
<path d="M1723 3743 c-28 -31 -36 -34 -65 -28 -30 5 -31 4 -15 -8 9 -8 17 -28
17 -45 0 -36 -22 -52 -72 -52 -28 -1 -30 -2 -15 -11 13 -7 16 -17 11 -32 -6
-21 -6 -22 14 -4 21 19 92 21 121 3 8 -5 16 -3 21 5 7 10 13 7 29 -12 26 -31
26 -60 1 -92 -11 -14 -20 -27 -20 -30 0 -3 24 1 54 10 54 15 55 15 110 -13 31
-15 56 -32 56 -37 0 -4 4 -6 9 -3 5 4 22 1 38 -5 17 -7 23 -13 15 -16 -8 -3
-19 0 -25 6 -16 16 -30 13 -23 -5 4 -9 1 -23 -6 -32 -11 -13 -10 -14 11 -7 25
8 98 -19 117 -44 8 -10 13 -11 18 -3 4 7 19 12 34 12 15 0 34 4 42 10 12 7 12
12 -4 29 -20 22 -20 23 39 36 34 8 65 32 65 52 0 7 -6 13 -12 14 -7 0 2 5 21
11 28 8 38 6 57 -9 108 -88 129 -107 126 -118 -4 -23 24 -38 46 -24 24 15 54
5 46 -16 -4 -9 -1 -15 8 -15 19 0 70 -54 61 -65 -5 -4 -1 -5 7 -3 8 3 23 1 33
-4 10 -5 25 -7 33 -4 13 5 12 12 -7 46 -19 34 -28 40 -55 40 -18 0 -36 5 -39
10 -4 6 9 10 32 10 50 0 67 12 58 39 -6 20 -3 21 78 21 70 0 89 -3 111 -21 28
-22 35 -42 11 -33 -8 4 -15 1 -15 -6 0 -22 -63 -2 -89 28 -16 19 -21 21 -17 8
4 -11 0 -26 -10 -37 -16 -18 -16 -19 6 -19 25 0 108 -71 103 -87 -3 -7 11 -11
31 -11 19 0 40 -3 45 -7 6 -3 20 -4 30 0 25 8 17 36 -21 77 -45 48 -27 42 38
-13 32 -28 76 -60 96 -72 42 -24 48 -37 18 -37 -26 0 -26 -20 0 -89 12 -29 18
-62 15 -72 -4 -10 -26 -35 -51 -55 -24 -20 -41 -40 -38 -45 3 -5 43 -8 88 -7
l82 3 89 -79 c50 -43 112 -93 138 -110 45 -27 47 -31 27 -38 -26 -10 -22 -25
13 -52 l27 -20 24 23 c24 23 25 23 95 7 38 -9 91 -16 116 -16 50 0 112 22 120
42 16 40 -143 243 -209 268 -18 6 -26 17 -26 32 1 23 1 23 24 -4 24 -27 96
-50 96 -30 0 5 -9 21 -20 35 -11 14 -20 30 -20 36 0 6 -17 11 -39 11 -29 0
-43 6 -55 23 -8 12 -13 15 -10 6 4 -14 -1 -16 -40 -12 -25 3 -61 2 -80 -1 -30
-6 -35 -10 -27 -24 8 -16 2 -17 -67 -14 -103 4 -130 14 -182 67 l-44 45 25 26
c22 21 29 23 52 15 96 -37 229 -32 273 10 20 19 20 19 48 -10 15 -16 26 -33
24 -37 -1 -4 28 -9 67 -11 38 -2 75 -9 83 -15 10 -8 20 -6 43 11 30 22 30 22
105 5 72 -16 112 -15 203 2 29 6 33 4 28 -9 -8 -21 10 -32 28 -17 8 6 27 9 47
5 36 -7 88 8 88 25 0 15 -69 88 -90 95 -10 3 -20 15 -23 25 -6 24 -43 27 -68
4 -16 -14 -19 -13 -43 19 -30 38 -32 49 -11 41 27 -11 36 6 20 37 -9 16 -20
29 -25 29 -6 0 -10 7 -10 16 0 13 -7 15 -36 9 -30 -5 -41 -2 -62 17 -14 13
-22 17 -18 11 9 -17 -16 -17 -32 -1 -7 7 -12 22 -12 35 0 22 -19 47 -96 126
-16 18 -33 40 -37 50 -7 18 -67 25 -67 7 0 -14 -46 -13 -73 2 -12 6 -30 22
-40 35 -24 30 -39 30 -27 -1 7 -19 5 -28 -10 -41 -25 -22 -17 -35 21 -35 22 0
43 -13 80 -47 27 -25 47 -48 44 -51 -3 -3 0 -11 6 -19 9 -11 -1 -13 -55 -13
-83 0 -113 15 -186 91 -74 78 -96 80 -65 6 21 -52 19 -77 -11 -108 -25 -26
-28 -27 -50 -12 -17 11 -24 25 -24 49 0 30 -4 34 -37 43 -21 6 -51 11 -68 11
-25 0 -34 8 -53 41 -20 34 -28 40 -47 35 -15 -4 -32 2 -51 16 -16 12 -26 18
-22 13 4 -4 3 -14 -3 -22 -9 -10 -8 -13 3 -13 9 0 26 -16 39 -35 13 -19 32
-36 43 -37 10 -2 23 -13 27 -25 8 -22 7 -23 -59 -23 -100 0 -127 11 -207 90
-40 38 -78 70 -83 70 -7 0 -3 -23 9 -57 11 -32 18 -67 15 -78 -3 -11 -26 -37
-51 -58 l-46 -38 -19 23 c-11 13 -19 26 -20 30 0 3 -16 16 -35 28 -20 12 -35
30 -35 40 0 10 -4 21 -10 25 -17 11 -84 8 -88 -3 -5 -15 -77 -15 -105 -1 -11
7 -36 28 -54 47 -35 37 -52 38 -34 4 18 -33 13 -60 -13 -77 -23 -15 -26 -15
-71 19 -26 20 -55 36 -65 36 -26 0 -52 29 -47 52 6 20 -36 48 -73 48 -11 0
-20 5 -20 10 0 6 6 10 14 10 7 0 25 9 40 21 21 16 26 17 26 5 0 -8 -4 -18 -10
-21 -22 -14 -8 -23 19 -14 24 8 42 6 90 -12 33 -12 58 -25 56 -29 -3 -4 2 -11
10 -14 9 -3 18 1 21 9 4 8 14 15 25 15 30 0 132 29 143 41 8 7 2 18 -19 35
-16 13 -36 24 -42 24 -7 0 -13 5 -13 10 0 6 -11 10 -25 10 -14 0 -25 -4 -25
-10 0 -16 -47 -12 -54 5 -7 19 -30 19 -50 0 -29 -30 -71 -38 -105 -21 -35 18
-45 20 -36 6 3 -5 3 -10 -1 -10 -11 0 -76 21 -96 31 -13 6 -26 1 -50 -21 -33
-31 -53 -36 -76 -22 -9 7 -8 13 8 27 28 26 25 33 -17 40 -21 3 -49 8 -63 10
-20 3 -34 -5 -57 -32z m127 -81 c0 -20 3 -23 12 -14 13 13 62 15 92 3 18 -7
18 -8 -5 -30 -19 -18 -31 -21 -58 -16 -31 6 -33 5 -22 -9 7 -9 11 -23 7 -31
-6 -18 5 -20 21 -4 8 8 28 9 59 4 38 -5 45 -9 31 -16 -9 -6 -39 -13 -66 -16
-42 -5 -57 -2 -98 22 -26 15 -50 29 -52 31 -2 2 7 12 19 22 l24 19 -21 12
c-12 6 -34 12 -50 14 -15 2 -37 8 -48 14 -19 11 -18 12 8 18 16 4 46 5 68 2
21 -3 41 -1 44 4 11 16 35 -4 35 -29z m1870 -252 c0 -5 -4 -10 -10 -10 -5 0
-10 5 -10 10 0 6 5 10 10 10 6 0 10 -4 10 -10z m-244 -93 c12 -7 52 -40 89
-74 l68 -62 -35 -6 c-36 -7 -78 7 -78 26 0 5 -8 13 -19 17 -16 6 -91 94 -91
107 0 10 45 4 66 -8z m228 -183 c29 -20 35 -28 25 -35 -9 -6 -19 -2 -29 11 -8
11 -24 26 -35 34 -35 26 -2 17 39 -10z"/>
<path d="M2780 3711 c0 -11 -8 -25 -17 -30 -16 -9 -16 -10 4 -11 22 0 93 -66
93 -86 0 -6 12 -11 28 -12 15 -1 38 -3 52 -4 32 -4 29 21 -8 74 -24 32 -32 37
-66 36 -31 0 -45 5 -63 26 -21 25 -23 25 -23 7z"/>
<path d="M2476 3666 c4 -16 1 -32 -7 -43 -13 -15 -11 -16 12 -10 20 5 35 0 64
-23 21 -17 42 -30 46 -30 5 0 8 -6 7 -12 -3 -15 101 -12 116 2 5 5 -13 31 -40
59 -47 49 -76 62 -89 41 -11 -18 -53 -10 -85 16 l-31 27 7 -27z"/>
<path d="M1335 3560 c-10 -11 -15 -23 -12 -27 15 -14 -36 -53 -69 -53 -38 0
-53 -15 -24 -23 14 -4 20 -14 20 -34 l1 -28 19 23 c13 16 39 28 80 36 33 7 60
9 60 4 0 -4 7 -8 15 -8 8 0 15 5 15 12 0 6 16 26 35 44 19 17 35 38 35 47 0
18 -61 28 -102 16 -16 -4 -30 -3 -33 2 -9 14 -20 11 -40 -11z"/>
<path d="M1643 3502 c-10 -25 -36 -42 -55 -36 -14 4 -15 2 -5 -20 11 -23 13
-23 29 -9 11 10 30 14 53 11 28 -3 40 1 62 24 15 15 24 31 20 34 -3 3 -27 8
-52 9 -36 3 -48 0 -52 -13z"/>
<path d="M5440 3411 c-28 -12 -46 -26 -48 -37 -7 -45 -25 -73 -50 -79 -27 -7
-27 -7 -4 -16 12 -4 22 -13 22 -19 0 -17 17 -11 22 8 6 21 84 66 99 57 5 -4 9
2 9 12 0 10 7 27 15 37 21 27 19 56 -2 55 -10 0 -38 -8 -63 -18z"/>
<path d="M1689 3402 c-19 -9 -34 -24 -34 -32 0 -28 -30 -40 -86 -35 -34 3 -75
-1 -109 -10 -30 -9 -66 -19 -79 -22 l-24 -6 26 35 c38 49 36 78 -3 78 -17 0
-47 -7 -66 -15 -20 -8 -40 -13 -44 -10 -12 7 -31 -21 -34 -50 -4 -32 -33 -65
-58 -65 -22 0 -23 27 -3 54 36 47 8 70 -52 44 -15 -7 -35 -12 -43 -12 -8 -1
-16 -12 -18 -26 -4 -36 -23 -70 -40 -70 -8 0 -27 -14 -43 -31 -30 -32 -117
-81 -130 -73 -11 7 -32 -35 -25 -52 9 -24 -12 -63 -44 -83 -29 -17 -30 -19
-10 -24 12 -3 24 -15 27 -26 6 -25 23 -18 23 9 0 12 16 30 40 45 47 30 57 31
62 8 3 -14 7 -11 19 12 17 37 138 102 151 82 21 -33 -10 -104 -50 -113 -42
-10 -49 -18 -22 -24 15 -4 27 -15 30 -30 l6 -25 16 29 c10 19 31 35 60 46 l46
17 9 -31 10 -31 19 34 c41 73 82 95 79 42 -2 -42 -31 -81 -66 -88 -34 -7 -49
-23 -21 -23 22 0 38 -16 44 -45 3 -17 6 -16 21 12 16 30 61 63 86 63 6 0 14
-12 17 -26 l6 -25 18 29 c13 21 34 35 72 48 29 10 59 17 66 16 6 -2 12 6 12
16 0 10 11 28 23 41 21 19 26 20 36 7 10 -12 10 -23 1 -51 -7 -20 -10 -39 -7
-42 3 -2 26 7 51 22 l46 27 69 -16 c39 -9 89 -16 112 -16 33 0 39 -3 30 -13
-13 -17 -5 -27 23 -27 12 0 26 9 31 21 13 28 110 62 125 44 18 -21 0 -47 -27
-40 l-24 6 23 -40 23 -40 -24 -31 c-12 -17 -20 -34 -17 -37 2 -3 26 0 53 7 47
12 50 11 132 -29 47 -23 91 -41 98 -41 7 0 13 -4 13 -10 0 -5 -5 -10 -11 -10
-8 0 -8 -5 1 -15 7 -8 20 -15 30 -15 10 0 20 7 24 15 3 10 19 15 43 15 58 1
114 16 137 39 l20 21 -34 36 c-19 20 -54 47 -78 61 -34 20 -40 28 -31 39 8 10
8 17 -3 27 -24 23 -73 54 -98 62 -14 4 -30 15 -36 24 -10 12 -18 13 -41 5 -15
-6 -27 -15 -26 -22 4 -16 -84 -27 -113 -13 l-25 11 21 28 c24 31 43 40 81 41
15 1 37 10 50 20 l24 19 -34 31 c-19 17 -50 36 -70 42 -20 7 -40 18 -44 25
-14 24 -77 14 -77 -11 0 -14 -31 -25 -70 -25 -14 1 -42 11 -62 24 l-38 23 30
22 c17 12 30 30 30 40 0 26 -75 61 -141 66 -33 2 -57 9 -64 19 -10 14 -15 13
-46 -2z m-406 -162 c-3 -11 0 -20 6 -20 6 0 2 -13 -11 -30 -12 -16 -28 -30
-35 -30 -7 0 -32 -7 -57 -15 -42 -15 -76 -12 -76 6 0 15 51 84 63 84 6 0 14
-11 17 -25 l6 -25 17 32 c17 32 29 41 59 42 11 1 15 -5 11 -19z m327 -28 c18
-15 20 -21 11 -45 -12 -31 -5 -34 26 -12 19 13 31 14 87 3 36 -7 66 -15 66
-18 -1 -10 -90 -50 -113 -50 -33 0 -87 20 -87 32 0 5 -19 8 -42 6 -56 -4 -61
17 -16 64 40 42 40 43 68 20z m80 8 c0 -13 -30 -13 -50 0 -11 7 -7 10 18 10
17 0 32 -4 32 -10z m490 -266 c22 -9 40 -20 40 -25 0 -13 -54 -11 -85 3 -33
15 -33 25 2 37 2 1 21 -6 43 -15z"/>
<path d="M945 3327 c-39 -15 -37 -13 -40 -39 -1 -13 -3 -26 -4 -30 0 -4 -13
-14 -28 -22 -20 -11 -23 -15 -10 -16 9 0 17 -8 18 -17 0 -15 2 -14 11 4 9 19
55 45 83 47 9 1 45 62 45 78 0 11 -39 8 -75 -5z"/>
<path d="M5012 3326 c-52 -11 -74 -28 -66 -51 6 -16 -35 -51 -71 -60 -28 -7
-29 -8 -8 -15 12 -5 24 -19 28 -31 l7 -22 13 23 c8 16 32 30 66 41 58 19 69
17 69 -10 0 -26 -32 -51 -66 -51 -24 -1 -26 -2 -11 -11 9 -5 17 -19 17 -31 0
-20 0 -20 18 1 13 17 29 22 74 24 32 1 58 6 58 11 0 4 11 17 25 28 14 11 25
25 25 33 0 16 -39 27 -77 20 -15 -3 -35 -1 -43 4 -12 9 -10 15 13 39 26 27 36
62 18 62 -5 0 -15 2 -23 4 -7 2 -37 -2 -66 -8z"/>
<path d="M2287 3315 c3 -9 -3 -25 -12 -35 -18 -19 -17 -20 11 -20 22 0 41 -11
69 -40 22 -23 38 -43 35 -46 -3 -4 21 -8 52 -10 31 -3 59 -1 62 4 7 12 -25 72
-45 83 -11 5 -19 17 -19 25 0 13 -8 15 -50 9 -44 -6 -52 -4 -75 19 -30 30 -37
32 -28 11z"/>
<path d="M4536 3209 c-29 -23 -50 -26 -86 -14 -21 7 -23 6 -12 -7 7 -9 9 -23
6 -33 -6 -15 -4 -16 13 -7 11 6 30 8 42 5 17 -4 20 -10 15 -27 -4 -11 -7 -21
-8 -22 0 0 -12 -8 -25 -17 -15 -10 -36 -14 -60 -11 -29 4 -33 3 -18 -6 22 -14
22 -40 -1 -40 -10 0 -25 -9 -35 -20 -19 -22 -48 -26 -78 -10 -20 11 -28 -3 -9
-15 7 -4 7 -13 0 -26 -10 -17 -9 -18 15 -7 19 8 31 8 50 0 14 -7 34 -12 45
-12 10 0 20 -6 23 -12 4 -10 7 -10 18 0 7 6 23 12 35 12 12 0 27 7 34 15 11
13 10 18 -6 30 -10 8 -27 17 -36 20 -25 9 -22 24 5 30 31 7 107 2 107 -7 0 -5
7 -8 15 -8 8 0 15 4 15 9 0 5 17 18 38 28 45 22 54 50 18 59 -31 8 -33 20 -5
27 32 9 18 29 -39 59 l-51 27 -25 -20z"/>
<path d="M2584 3180 c10 -39 9 -42 -19 -65 l-30 -24 51 -1 c38 0 56 -5 69 -20
15 -16 15 -22 5 -35 -10 -13 -9 -15 7 -15 20 0 83 -58 83 -77 0 -14 103 -29
107 -16 2 5 27 8 56 6 35 -3 58 0 71 9 17 14 17 16 3 45 -20 37 -14 44 24 31
34 -12 43 -7 35 19 -11 34 -54 72 -76 66 -12 -3 -28 2 -39 11 -16 15 -19 15
-24 1 -9 -22 -37 -19 -37 5 0 12 -10 25 -24 31 -29 13 -80 4 -70 -13 5 -7 -10
-9 -50 -6 -50 4 -62 9 -99 46 -24 23 -45 42 -48 42 -4 0 -1 -18 5 -40z m366
-122 l23 -33 -31 29 c-34 31 -37 36 -24 36 5 0 19 -15 32 -32z"/>
<path d="M2340 3138 c0 -9 -6 -19 -12 -21 -9 -4 -8 -6 3 -6 17 -1 69 -51 69
-67 0 -5 18 -10 40 -12 46 -3 52 11 20 46 -11 12 -20 25 -20 31 0 5 -16 9 -36
8 -25 -1 -41 5 -50 18 -12 16 -14 16 -14 3z"/>
<path d="M5290 3140 c-8 -5 -25 -10 -37 -10 -21 0 -28 -10 -24 -34 3 -15 -41
-56 -60 -56 -16 0 -15 -3 4 -24 18 -21 23 -22 30 -10 12 21 93 55 115 47 9 -3
14 -3 10 1 -3 4 5 24 18 43 13 19 21 39 18 44 -7 12 -55 11 -74 -1z"/>
<path d="M4705 3024 c-38 -19 -68 -56 -53 -66 7 -4 -1 -17 -22 -35 -53 -45
-61 -48 -145 -53 l-80 -5 35 -19 c47 -25 51 -34 44 -83 -4 -24 -3 -43 0 -43 4
0 26 18 50 41 l45 40 41 -26 c42 -26 42 -27 38 -76 -3 -27 -3 -49 1 -49 3 0
23 18 46 39 l40 39 122 4 c99 4 120 3 116 -8 -3 -10 3 -14 21 -14 19 0 27 6
32 25 4 16 21 33 45 46 37 18 39 18 39 2 0 -15 5 -13 23 9 22 26 94 54 130 49
9 -1 17 3 17 9 0 6 11 26 25 44 41 53 35 60 -47 53 -42 -4 -77 -12 -86 -21
-12 -12 -19 -12 -46 -1 -17 7 -52 16 -78 20 -27 4 -48 13 -48 19 0 22 -101 50
-175 49 -47 -1 -75 3 -85 12 -14 12 -20 12 -45 -1z"/>
<path d="M3790 2995 c0 -3 5 -15 11 -27 9 -16 6 -24 -13 -45 l-23 -25 37 3
c29 3 50 -5 98 -36 33 -21 60 -42 60 -47 0 -15 -16 -8 -40 17 -30 32 -43 32
-28 0 10 -22 8 -29 -13 -51 l-24 -27 38 7 c34 6 45 2 100 -34 64 -43 70 -58
39 -93 -23 -26 -9 -31 48 -16 50 13 53 12 108 -18 31 -17 76 -37 100 -44 38
-11 58 -29 31 -29 -8 0 -8 -5 1 -15 17 -21 37 -19 52 5 10 16 24 20 66 20 58
0 119 21 128 43 8 23 -84 104 -140 125 -31 11 -51 25 -57 40 -6 14 -17 22 -33
22 -35 0 -78 -21 -72 -36 3 -7 -7 -14 -22 -17 -21 -4 -32 1 -49 21 -26 33 -22
42 20 42 73 1 74 38 1 75 -21 11 -40 23 -42 28 -5 11 -50 9 -57 -3 -4 -6 -21
2 -41 20 -19 16 -39 30 -44 30 -5 0 -12 9 -15 20 -8 24 -40 26 -84 4 -38 -19
-69 -13 -110 22 -17 14 -31 23 -31 19z"/>
<path d="M2564 2948 c5 -21 1 -30 -16 -42 -22 -16 -22 -16 10 -16 35 0 132
-66 125 -86 -4 -12 116 -17 134 -6 15 10 -26 75 -57 92 -11 6 -20 18 -20 26 0
14 -9 15 -61 9 -58 -7 -62 -6 -91 21 l-31 29 7 -27z"/>
<path d="M1041 2915 c-18 -8 -37 -13 -41 -10 -11 7 -33 -22 -27 -37 8 -23 -27
-69 -55 -75 -32 -6 -38 -23 -9 -23 12 0 23 -9 27 -22 7 -23 7 -23 16 3 6 19
23 32 56 45 26 11 52 19 57 19 6 0 10 3 10 5 0 3 10 19 23 37 45 64 20 91 -57
58z"/>
<path d="M1662 2898 c-7 -7 -12 -17 -12 -23 0 -22 -58 -46 -97 -40 l-38 6 24
-19 c17 -14 22 -25 16 -40 -8 -27 2 -28 28 -5 14 13 36 18 78 18 32 0 59 -3
59 -7 0 -14 19 -9 39 10 11 9 31 25 45 35 14 10 26 24 26 32 0 26 -147 54
-168 33z"/>
<path d="M2845 2884 c18 -46 17 -56 -11 -85 l-28 -29 46 0 c41 0 53 -6 119
-62 41 -34 73 -66 71 -71 -1 -5 2 -15 9 -23 9 -12 14 -12 31 0 37 26 108 -19
108 -68 0 -9 6 -13 13 -10 7 2 30 -3 51 -11 54 -23 63 -9 35 51 -12 27 -23 54
-23 59 -3 26 -40 77 -86 118 -27 25 -50 52 -50 60 0 8 -12 18 -26 21 -29 8
-64 -1 -64 -15 0 -17 -84 -9 -117 11 -18 11 -33 24 -33 29 0 5 -12 17 -27 26
-25 17 -26 17 -18 -1z"/>
<path d="M1157 2842 c-16 -17 -25 -35 -22 -44 4 -9 -9 -28 -35 -51 -34 -32
-47 -37 -88 -37 -62 0 -70 -8 -29 -29 26 -13 33 -23 37 -56 l5 -39 31 38 c29
35 37 38 102 46 39 5 83 12 98 16 19 5 25 4 20 -5 -5 -7 2 -11 18 -11 20 0 26
5 26 23 0 14 10 29 29 40 39 23 81 74 81 97 0 23 -51 36 -125 31 -84 -5 -89
-4 -105 3 -10 4 -25 -4 -43 -22z"/>
<path d="M1980 2750 c-34 -33 -55 -37 -80 -15 -14 13 -20 12 -50 -3 -21 -10
-34 -23 -32 -33 1 -10 -15 -24 -48 -39 -44 -21 -54 -22 -88 -12 -22 7 -48 12
-58 12 -16 -1 -15 -4 9 -23 15 -13 27 -28 27 -34 0 -13 -75 -37 -89 -29 -10 7
-47 -32 -38 -40 15 -15 -35 -63 -71 -70 -34 -7 -35 -8 -14 -17 14 -7 22 -19
22 -36 l1 -26 22 28 c24 29 113 59 148 50 14 -4 19 0 19 14 0 11 10 28 21 39
12 10 25 30 30 43 8 20 14 22 42 17 17 -3 62 -9 100 -12 54 -5 67 -10 65 -22
-5 -25 32 -27 39 -3 3 12 17 24 32 28 56 13 103 44 117 78 7 18 22 36 33 40
10 3 22 12 25 20 6 18 -60 55 -99 55 -14 0 -25 5 -25 10 0 19 -30 10 -60 -20z"/>
<path d="M1431 2727 c-6 -6 -11 -16 -11 -22 0 -25 -46 -55 -86 -56 -38 0 -39
0 -16 -16 12 -8 22 -25 22 -36 l0 -20 23 20 c23 22 132 39 142 23 8 -13 95 73
95 93 0 11 -12 17 -42 20 -75 8 -115 6 -127 -6z"/>
<path d="M2214 2675 c21 -32 20 -47 -5 -79 l-20 -26 23 1 c13 0 32 4 43 8 24
10 49 1 105 -34 40 -25 41 -27 24 -46 -17 -18 -16 -19 15 -19 20 0 50 -13 82
-35 28 -19 48 -35 43 -35 -4 0 -3 -5 3 -11 6 -6 17 -8 24 -3 8 4 31 7 52 5 21
-1 44 3 52 9 13 10 11 17 -10 44 l-24 31 27 22 27 22 -44 44 c-24 25 -61 53
-82 62 -21 10 -41 26 -44 36 -10 30 -95 24 -95 -6 0 -8 -19 -16 -50 -20 -45
-6 -55 -4 -99 24 -58 37 -68 39 -47 6z"/>
<path d="M4821 2597 c-6 -6 -11 -16 -11 -23 0 -20 -47 -44 -87 -45 -35 0 -36
-1 -15 -11 14 -7 22 -20 22 -36 l0 -25 24 22 c22 21 33 23 87 19 59 -4 63 -3
100 30 62 55 55 62 -68 75 -22 3 -46 0 -52 -6z"/>
<path d="M2772 2539 c3 -8 -2 -22 -11 -33 -15 -18 -15 -18 7 -11 17 5 34 -1
63 -20 21 -15 39 -31 39 -35 0 -9 98 -5 107 4 4 4 -14 28 -41 53 -41 41 -50
45 -67 35 -26 -16 -50 -15 -78 5 -18 12 -22 13 -19 2z"/>
<path d="M3931 2524 c-14 -16 -56 -16 -95 1 -16 7 -17 6 -7 -13 7 -14 8 -23 1
-27 -20 -12 -9 -24 18 -19 29 6 122 -30 122 -46 0 -6 7 -10 15 -10 8 0 15 5
15 10 0 6 14 10 31 10 17 0 39 5 50 11 20 10 20 11 3 30 -22 25 -102 69 -123
69 -9 -1 -22 -8 -30 -16z"/>
<path d="M4420 2460 c-30 -30 -67 -42 -90 -30 -31 16 -45 12 -27 -8 11 -12 13
-22 6 -35 -11 -20 -6 -21 22 -7 22 12 131 -8 123 -22 -3 -4 2 -8 10 -8 9 0 16
4 16 8 0 5 18 14 39 21 58 17 59 36 3 61 -26 12 -55 26 -64 31 -13 7 -23 4
-38 -11z"/>
<path d="M3589 2429 c-24 -20 -51 -22 -94 -4 -18 8 -18 7 -7 -7 10 -13 11 -22
2 -37 -10 -19 -9 -20 14 -11 27 10 111 -16 126 -39 5 -9 12 -10 26 -3 11 6 30
13 44 16 14 3 32 10 40 16 13 8 13 11 0 24 -16 15 -108 66 -120 66 -4 0 -18
-9 -31 -21z"/>
</g>
</svg>
