<?xml version="1.0" encoding="UTF-8"?>
<svg id="Capa_3" data-name="Capa 3" xmlns="http://www.w3.org/2000/svg" viewBox="0 0 219.13 128.35">
  <defs>
    <style>
      .cls-1 {
        fill: #fff;
        stroke-width: 0px;
      }
    </style>
  </defs>
  <g>
    <path class="cls-1" d="M174.46,32.17l-2.54,8.25h5.39l-2.85-8.25ZM173.15,26.97l5.95-.06,8,23.31h-6.45l-2.29-6.82h-7.32l-2.29,6.82h-3.1l7.5-23.25Z"/>
    <path class="cls-1" d="M97.24,29.26s-5-.15-4.85,9.35c0,0-.11,9.35,4.7,9.35,0,0,5.22,1.33,5.46-9.5-.05-5.77-1.98-9.19-5.3-9.19ZM97.5,26.36c6.6.15,10.42,3.8,11.47,10.93.07.48.12,2.16.09,2.49-1.26,11.59-11.48,11.15-11.48,11.15-12.17,0-11.9-12.89-11.9-12.89.42-11.9,11.83-11.67,11.83-11.67Z"/>
    <path class="cls-1" d="M83.61,31.66l-2.9,2.14s-1.89-4.24-5.08-4.54c-.23-.02-.96-.02-1.35.03-1.46.19-4.99,1.4-5.33,8.55,0,0-.54,10.22,6.56,10.03,0,0,4-.15,5.95-4.96l2.63,1.64s-2.63,6.34-9.84,6.26c0,0-11.18.73-11.75-11.48,0,0-.69-9.93,8.35-12.33.94-.25,3.5-.56,4.12-.57,1.62-.02,4.94.47,7.86,4.16l.76,1.07Z"/>
    <polygon class="cls-1" points="115.43 26.86 119.82 39.18 124.52 26.86 127.34 26.86 117.99 50.66 109.06 26.95 115.43 26.86"/>
    <polygon class="cls-1" points="143.77 27.03 130.07 27.03 130.07 50.34 144.2 50.34 144.2 47.3 136.14 47.3 136.14 40.11 143.27 40.11 143.27 37.01 136.08 37.01 136.08 30.07 143.71 30.07 143.77 27.03"/>
    <path class="cls-1" d="M155.11,29.94l.06,8.06c4.52.24,5.54-1.5,5.69-2.79.08-.72-.03-1.41-.03-1.41-.09-1.07-.49-1.75-.93-2.34-1.59-2.13-4.79-1.52-4.79-1.52ZM149.1,50.4l.12-23.5,9.8.06c8.18.43,7.81,7.44,7.81,7.44-.25,6.45-6.08,6.45-6.08,6.45h-5.58v9.55h-6.08Z"/>
  </g>
  <g>
    <path class="cls-1" d="M68.03,19.13l-3.24,1.98-10.61-.04s-10.54,0-17.73,7.94c0,0-10.29,11.03-.25,22.57,0,0,5.58,7.56,18.97,8.18l135.4.25.87,2.11-136.89-.12s-15.13.37-22.57-12.15c0,0-8.18-12.4,4.59-24.18,0,0,6.82-7.44,22.57-6.7l8.89.16Z"/>
    <path class="cls-1" d="M53.81,55.58l135.4.25.87,2.11-136.58-.25s-16.89-.81-18.82-16.52c-.2-1.08.28-15.84,19.78-17.85.03,0,7.76-.13,7.94.03,0,0-1.7,2.01-1.7,1.98-.16.14-6.19-.05-6.48.09-11.38,1.43-16.62,7.44-17.02,14.88-.03,5.52,3.69,14.07,16.61,15.29Z"/>
    <path class="cls-1" d="M59.36,27.34l-1.07,2.03-3.71-.07s-8.37.68-11.66,6.97c0,0-3.5,6.94,2.85,12.03,0,0,4.49,3.53,8.59,3.41l6.54.09,1.89,2.05-8.03.03s-9.61-.25-13.73-7.72c0,0-4.62-7.94,2.7-14.48,0,0,4.56-4.12,10.88-4.4l4.74.06Z"/>
    <path class="cls-1" d="M57.28,31.18s-5.42-.71-9.42,2.51c0,0-3.81,3.41-3.6,6.91,0,0,.09,6.01,6.42,8.43,0,0,2.36,1.33,9.05.96,0,0-2.76-4-3.41-9.18-.39-3.39-.07-6.6.96-9.64Z"/>
  </g>
  <g>
    <polygon class="cls-1" points="50.31 66.46 51.41 66.46 51.41 76.38 55.65 76.38 55.65 77.45 50.31 77.45 50.31 66.46"/>
    <g>
      <polygon class="cls-1" points="50.31 66.46 51.41 66.46 51.41 76.38 55.65 76.38 55.65 77.45 50.31 77.45 50.31 66.46"/>
      <path class="cls-1" d="M55.67,77.47h-5.39v-11.04h1.15v9.92h4.24v1.12ZM50.33,77.42h5.29v-1.02h-4.24v-9.92h-1.06v10.94Z"/>
    </g>
  </g>
  <g>
    <path class="cls-1" d="M65.32,69.32v8.13h-1.04v-1.4c-.44.53-.93.93-1.47,1.2-.54.27-1.14.4-1.79.4-1.15,0-2.13-.42-2.94-1.25-.81-.83-1.22-1.84-1.22-3.04s.41-2.17,1.23-3c.82-.83,1.81-1.24,2.96-1.24.67,0,1.27.14,1.81.42.54.28,1.01.7,1.42,1.27v-1.49h1.04ZM61.13,70.13c-.58,0-1.12.14-1.61.43-.49.29-.88.69-1.17,1.2s-.44,1.06-.44,1.64.15,1.12.44,1.64c.29.52.69.93,1.18,1.22.49.29,1.02.43,1.59.43s1.11-.14,1.62-.43c.51-.29.9-.68,1.18-1.17.28-.49.41-1.04.41-1.66,0-.94-.31-1.72-.93-2.35-.62-.63-1.38-.94-2.28-.94Z"/>
    <g>
      <path class="cls-1" d="M65.32,69.32v8.13h-1.04v-1.4c-.44.53-.93.93-1.47,1.2-.54.27-1.14.4-1.79.4-1.15,0-2.13-.42-2.94-1.25-.81-.83-1.22-1.84-1.22-3.04s.41-2.17,1.23-3c.82-.83,1.81-1.24,2.96-1.24.67,0,1.27.14,1.81.42.54.28,1.01.7,1.42,1.27v-1.49h1.04ZM61.13,70.13c-.58,0-1.12.14-1.61.43-.49.29-.88.69-1.17,1.2s-.44,1.06-.44,1.64.15,1.12.44,1.64c.29.52.69.93,1.18,1.22.49.29,1.02.43,1.59.43s1.11-.14,1.62-.43c.51-.29.9-.68,1.18-1.17.28-.49.41-1.04.41-1.66,0-.94-.31-1.72-.93-2.35-.62-.63-1.38-.94-2.28-.94Z"/>
      <path class="cls-1" d="M61.01,77.67c-1.15,0-2.15-.42-2.96-1.26-.81-.83-1.23-1.86-1.23-3.05s.42-2.18,1.24-3.01c.82-.83,1.82-1.25,2.98-1.25.67,0,1.28.14,1.82.42.52.27.99.68,1.39,1.22v-1.45h1.09v8.17h-1.09v-1.36c-.43.51-.91.9-1.44,1.15-.55.27-1.15.4-1.8.4ZM61.04,69.14c-1.14,0-2.13.42-2.94,1.24-.81.82-1.22,1.82-1.22,2.98s.41,2.2,1.21,3.02c.8.82,1.79,1.24,2.93,1.24.64,0,1.24-.13,1.78-.4.54-.26,1.03-.66,1.47-1.19l.04-.05v1.44h.99v-8.08h-.99v1.54l-.04-.06c-.4-.56-.88-.99-1.41-1.27-.53-.28-1.14-.42-1.8-.42ZM61.12,76.7c-.57,0-1.11-.15-1.6-.44-.5-.29-.9-.7-1.19-1.22-.29-.52-.44-1.08-.44-1.65s.15-1.13.44-1.65c.29-.52.69-.92,1.18-1.21.49-.29,1.04-.43,1.62-.43.91,0,1.68.32,2.3.95.62.63.93,1.43.93,2.37,0,.62-.14,1.18-.42,1.67-.28.49-.68.89-1.19,1.18-.51.29-1.06.43-1.64.43ZM61.13,70.15c-.57,0-1.11.14-1.6.42-.49.28-.88.68-1.16,1.19-.29.51-.43,1.06-.43,1.62s.15,1.11.44,1.62c.29.51.68.92,1.17,1.21.49.29,1.02.43,1.58.43s1.11-.14,1.61-.43c.51-.28.9-.67,1.17-1.16.27-.48.41-1.04.41-1.65,0-.93-.31-1.71-.92-2.33-.61-.62-1.37-.94-2.27-.94Z"/>
    </g>
  </g>
  <g>
    <path class="cls-1" d="M71.92,69.32h1.04v1.4c.36-.52.74-.9,1.12-1.14.53-.31,1.08-.47,1.67-.47.39,0,.77.08,1.12.23.35.15.64.36.87.62.22.26.42.62.58,1.1.35-.64.78-1.12,1.31-1.45.52-.33,1.08-.5,1.69-.5.56,0,1.06.14,1.49.43.43.28.75.68.96,1.19.21.51.31,1.27.31,2.28v4.43h-1.07v-4.43c0-.87-.06-1.47-.19-1.8-.12-.33-.34-.59-.64-.79-.3-.2-.66-.3-1.08-.3-.51,0-.97.15-1.39.45-.42.3-.73.7-.92,1.19-.19.5-.29,1.33-.29,2.49v3.18h-1.04v-4.16c0-.98-.06-1.65-.18-2-.12-.35-.34-.63-.64-.84-.3-.21-.67-.32-1.08-.32-.48,0-.94.15-1.36.44-.42.29-.73.68-.93,1.18-.2.49-.3,1.25-.3,2.26v3.44h-1.04v-8.13Z"/>
    <g>
      <path class="cls-1" d="M71.92,69.32h1.04v1.4c.36-.52.74-.9,1.12-1.14.53-.31,1.08-.47,1.67-.47.39,0,.77.08,1.12.23.35.15.64.36.87.62.22.26.42.62.58,1.1.35-.64.78-1.12,1.31-1.45.52-.33,1.08-.5,1.69-.5.56,0,1.06.14,1.49.43.43.28.75.68.96,1.19.21.51.31,1.27.31,2.28v4.43h-1.07v-4.43c0-.87-.06-1.47-.19-1.8-.12-.33-.34-.59-.64-.79-.3-.2-.66-.3-1.08-.3-.51,0-.97.15-1.39.45-.42.3-.73.7-.92,1.19-.19.5-.29,1.33-.29,2.49v3.18h-1.04v-4.16c0-.98-.06-1.65-.18-2-.12-.35-.34-.63-.64-.84-.3-.21-.67-.32-1.08-.32-.48,0-.94.15-1.36.44-.42.29-.73.68-.93,1.18-.2.49-.3,1.25-.3,2.26v3.44h-1.04v-8.13Z"/>
      <path class="cls-1" d="M84.09,77.47h-1.12v-4.46c0-.86-.06-1.47-.18-1.79-.12-.32-.33-.58-.63-.78-.3-.2-.65-.29-1.06-.29-.5,0-.96.15-1.38.44-.41.29-.72.69-.91,1.18-.19.49-.29,1.33-.29,2.48v3.2h-1.09v-4.18c0-.97-.06-1.64-.18-1.99-.12-.34-.33-.62-.63-.83-.3-.21-.66-.31-1.07-.31-.48,0-.93.15-1.34.43-.42.29-.73.68-.93,1.17-.2.49-.3,1.25-.3,2.25v3.46h-1.09v-8.17h1.09v1.35c.35-.49.72-.85,1.09-1.08.53-.31,1.09-.47,1.68-.47.4,0,.78.08,1.13.23.36.15.65.36.88.62.22.25.41.61.57,1.06.34-.62.78-1.09,1.29-1.42.52-.33,1.09-.5,1.7-.5.56,0,1.07.14,1.5.43.43.28.76.69.97,1.2.21.51.32,1.28.32,2.29v4.45ZM83.02,77.42h1.02v-4.41c0-1.01-.1-1.77-.31-2.27-.21-.5-.53-.9-.95-1.18-.42-.28-.92-.42-1.47-.42-.59,0-1.16.17-1.67.49-.52.33-.95.81-1.3,1.44l-.03.05-.02-.05c-.16-.47-.36-.84-.58-1.09-.22-.25-.51-.46-.86-.61-.35-.15-.72-.23-1.11-.23-.58,0-1.13.16-1.66.46-.38.24-.75.62-1.11,1.13l-.04.06v-1.46h-.99v8.08h.99v-3.42c0-1.01.1-1.78.3-2.27.2-.49.52-.89.94-1.19.42-.29.88-.44,1.37-.44.42,0,.79.11,1.1.32.31.21.52.5.65.86.12.35.18,1.03.18,2v4.13h.99v-3.16c0-1.16.1-2,.29-2.5.19-.5.51-.9.93-1.2.42-.3.89-.45,1.4-.45.42,0,.79.1,1.09.3.3.2.52.47.65.8.12.33.19.93.19,1.8v4.41Z"/>
    </g>
  </g>
  <g>
    <path class="cls-1" d="M93.12,74.75l.88.46c-.29.56-.62,1.02-1,1.37-.38.35-.81.61-1.28.79-.47.18-1.01.27-1.61.27-1.33,0-2.37-.43-3.12-1.3-.75-.87-1.12-1.85-1.12-2.94,0-1.03.32-1.94.95-2.75.81-1.02,1.88-1.53,3.23-1.53s2.5.52,3.33,1.57c.59.74.89,1.67.9,2.77h-7.35c.02.94.32,1.71.91,2.31.59.6,1.31.9,2.17.9.42,0,.82-.07,1.21-.21.39-.14.73-.33,1-.57.28-.24.57-.62.89-1.15ZM93.13,72.56c-.14-.56-.34-1-.61-1.34-.27-.33-.62-.6-1.06-.81-.44-.2-.91-.31-1.39-.31-.8,0-1.49.26-2.07.77-.42.37-.74.93-.96,1.68h6.09Z"/>
    <g>
      <path class="cls-1" d="M93.12,74.75l.88.46c-.29.56-.62,1.02-1,1.37-.38.35-.81.61-1.28.79-.47.18-1.01.27-1.61.27-1.33,0-2.37-.43-3.12-1.3-.75-.87-1.12-1.85-1.12-2.94,0-1.03.32-1.94.95-2.75.81-1.02,1.88-1.53,3.23-1.53s2.5.52,3.33,1.57c.59.74.89,1.67.9,2.77h-7.35c.02.94.32,1.71.91,2.31.59.6,1.31.9,2.17.9.42,0,.82-.07,1.21-.21.39-.14.73-.33,1-.57.28-.24.57-.62.89-1.15ZM93.13,72.56c-.14-.56-.34-1-.61-1.34-.27-.33-.62-.6-1.06-.81-.44-.2-.91-.31-1.39-.31-.8,0-1.49.26-2.07.77-.42.37-.74.93-.96,1.68h6.09Z"/>
      <path class="cls-1" d="M90.11,77.67c-1.33,0-2.39-.44-3.14-1.31-.75-.87-1.13-1.86-1.13-2.95,0-1.03.32-1.96.96-2.76.81-1.02,1.9-1.54,3.25-1.54s2.52.53,3.35,1.58c.59.74.9,1.68.91,2.79v.02s-7.35,0-7.35,0c.02.92.33,1.68.9,2.27.58.59,1.3.89,2.15.89.41,0,.82-.07,1.21-.21.39-.14.72-.33,1-.56.27-.23.57-.62.89-1.14v-.02s.93.48.93.48v.02c-.3.56-.64,1.03-1.02,1.37-.38.35-.81.61-1.29.8-.48.18-1.02.27-1.62.27ZM90.05,69.14c-1.34,0-2.42.51-3.22,1.53-.63.8-.95,1.72-.95,2.73,0,1.08.38,2.07,1.12,2.92.74.86,1.79,1.29,3.1,1.29.59,0,1.13-.09,1.6-.27.47-.18.9-.44,1.27-.79.37-.34.7-.79.99-1.34l-.84-.44c-.32.52-.61.9-.89,1.13-.28.24-.62.43-1.01.57-.39.14-.8.22-1.22.22-.86,0-1.6-.31-2.19-.91-.59-.6-.9-1.39-.92-2.33v-.02s7.35,0,7.35,0c-.01-1.09-.32-2.01-.9-2.74-.82-1.04-1.94-1.56-3.31-1.56ZM93.16,72.59h-6.15v-.03c.22-.75.55-1.32.97-1.69.58-.51,1.28-.77,2.08-.77.49,0,.96.1,1.4.31.44.2.8.48,1.07.81.27.33.48.79.62,1.35v.03ZM87.07,72.54h6.03c-.14-.54-.34-.97-.6-1.3-.26-.33-.62-.6-1.06-.8-.44-.2-.9-.3-1.38-.3-.79,0-1.48.26-2.05.76-.41.36-.73.91-.94,1.64Z"/>
    </g>
  </g>
  <g>
    <path class="cls-1" d="M96.58,65.98c.24,0,.44.08.6.25.16.17.25.37.25.61s-.08.44-.25.61c-.16.17-.37.25-.6.25s-.44-.08-.6-.25c-.16-.17-.25-.37-.25-.61s.08-.44.25-.61c.16-.17.37-.25.6-.25ZM96.07,69.32h1.04v9.34c0,.68-.12,1.18-.37,1.49-.24.31-.58.47-1,.47-.35,0-.75-.08-1.19-.25v-.93c.28.14.53.22.75.22.28,0,.5-.12.63-.35.08-.15.13-.46.13-.93v-9.05Z"/>
    <g>
      <path class="cls-1" d="M96.58,65.98c.24,0,.44.08.6.25.16.17.25.37.25.61s-.08.44-.25.61c-.16.17-.37.25-.6.25s-.44-.08-.6-.25c-.16-.17-.25-.37-.25-.61s.08-.44.25-.61c.16-.17.37-.25.6-.25ZM96.07,69.32h1.04v9.34c0,.68-.12,1.18-.37,1.49-.24.31-.58.47-1,.47-.35,0-.75-.08-1.19-.25v-.93c.28.14.53.22.75.22.28,0,.5-.12.63-.35.08-.15.13-.46.13-.93v-9.05Z"/>
      <path class="cls-1" d="M95.74,80.64c-.35,0-.75-.09-1.19-.26h-.01v-.99l.03.02c.27.14.52.21.74.21.27,0,.48-.11.61-.34.08-.14.12-.45.12-.92v-9.07h1.09v9.36c0,.68-.13,1.19-.37,1.5-.25.32-.59.48-1.02.48ZM94.58,80.34c.43.16.82.25,1.16.25.42,0,.75-.15.99-.46.24-.31.36-.8.36-1.47v-9.32h-.99v9.02c0,.48-.04.79-.13.95-.14.24-.36.36-.65.36-.22,0-.46-.07-.73-.2v.87ZM96.58,67.74c-.24,0-.45-.09-.62-.26-.17-.17-.25-.38-.25-.62s.09-.46.25-.63c.17-.17.38-.26.62-.26s.45.09.62.26c.17.17.25.39.25.63s-.09.45-.25.62c-.17.17-.38.26-.62.26ZM96.58,66.01c-.23,0-.43.08-.59.25-.16.16-.24.37-.24.6s.08.43.24.59c.16.16.36.25.59.25s.43-.08.59-.25c.16-.16.24-.36.24-.59s-.08-.43-.24-.6c-.16-.16-.36-.25-.59-.25Z"/>
    </g>
  </g>
  <g>
    <g>
      <path class="cls-1" d="M103.14,69.12c1.25,0,2.29.45,3.12,1.36.75.82,1.12,1.8,1.12,2.93s-.4,2.12-1.19,2.97c-.79.85-1.81,1.27-3.05,1.27s-2.27-.42-3.06-1.27c-.79-.85-1.19-1.84-1.19-2.97s.37-2.1,1.12-2.92c.82-.91,1.87-1.36,3.13-1.36ZM103.14,70.15c-.87,0-1.62.32-2.24.96-.62.64-.94,1.41-.94,2.32,0,.59.14,1.13.43,1.64.28.51.67.9,1.15,1.17.48.28,1.02.41,1.6.41s1.11-.14,1.6-.41c.48-.28.87-.67,1.15-1.17.28-.51.43-1.05.43-1.64,0-.91-.31-1.68-.94-2.32-.63-.64-1.37-.96-2.24-.96Z"/>
      <path class="cls-1" d="M103.14,77.67c-1.25,0-2.29-.43-3.08-1.28-.79-.85-1.19-1.85-1.19-2.99s.38-2.11,1.13-2.94c.83-.91,1.88-1.37,3.14-1.37s2.31.46,3.14,1.36c.75.83,1.13,1.82,1.13,2.94s-.4,2.14-1.19,2.99c-.79.85-1.83,1.28-3.07,1.28ZM103.14,69.14c-1.25,0-2.29.46-3.11,1.36-.74.82-1.12,1.79-1.12,2.91s.4,2.11,1.18,2.95c.78.84,1.81,1.26,3.05,1.26s2.25-.42,3.04-1.26c.78-.84,1.18-1.83,1.18-2.95s-.38-2.1-1.12-2.91c-.82-.89-1.86-1.35-3.1-1.35ZM103.14,76.67c-.58,0-1.12-.14-1.61-.42-.49-.28-.88-.67-1.16-1.18-.29-.51-.43-1.06-.43-1.65,0-.91.32-1.7.94-2.34.63-.64,1.38-.97,2.26-.97s1.62.33,2.25.97c.63.64.95,1.43.95,2.34,0,.59-.14,1.14-.43,1.65-.29.51-.68.9-1.16,1.18-.49.28-1.03.42-1.61.42ZM103.14,70.17c-.86,0-1.61.32-2.22.95-.62.63-.93,1.41-.93,2.31,0,.58.14,1.13.42,1.63.28.5.67.89,1.14,1.16.48.27,1.01.41,1.58.41s1.11-.14,1.58-.41c.48-.27.86-.66,1.14-1.16.28-.5.42-1.05.42-1.63,0-.9-.31-1.67-.93-2.31-.62-.63-1.37-.95-2.22-.95Z"/>
    </g>
    <g>
      <path class="cls-1" d="M103.14,69.12c1.25,0,2.29.45,3.12,1.36.75.82,1.12,1.8,1.12,2.93s-.4,2.12-1.19,2.97c-.79.85-1.81,1.27-3.05,1.27s-2.27-.42-3.06-1.27c-.79-.85-1.19-1.84-1.19-2.97s.37-2.1,1.12-2.92c.82-.91,1.87-1.36,3.13-1.36ZM103.14,70.15c-.87,0-1.62.32-2.24.96-.62.64-.94,1.41-.94,2.32,0,.59.14,1.13.43,1.64.28.51.67.9,1.15,1.17.48.28,1.02.41,1.6.41s1.11-.14,1.6-.41c.48-.28.87-.67,1.15-1.17.28-.51.43-1.05.43-1.64,0-.91-.31-1.68-.94-2.32-.63-.64-1.37-.96-2.24-.96Z"/>
      <path class="cls-1" d="M103.14,77.67c-1.25,0-2.29-.43-3.08-1.28-.79-.85-1.19-1.85-1.19-2.99s.38-2.11,1.13-2.94c.83-.91,1.88-1.37,3.14-1.37s2.31.46,3.14,1.36c.75.83,1.13,1.82,1.13,2.94s-.4,2.14-1.19,2.99c-.79.85-1.83,1.28-3.07,1.28ZM103.14,69.14c-1.25,0-2.29.46-3.11,1.36-.74.82-1.12,1.79-1.12,2.91s.4,2.11,1.18,2.95c.78.84,1.81,1.26,3.05,1.26s2.25-.42,3.04-1.26c.78-.84,1.18-1.83,1.18-2.95s-.38-2.1-1.12-2.91c-.82-.89-1.86-1.35-3.1-1.35ZM103.14,76.67c-.58,0-1.12-.14-1.61-.42-.49-.28-.88-.67-1.16-1.18-.29-.51-.43-1.06-.43-1.65,0-.91.32-1.7.94-2.34.63-.64,1.38-.97,2.26-.97s1.62.33,2.25.97c.63.64.95,1.43.95,2.34,0,.59-.14,1.14-.43,1.65-.29.51-.68.9-1.16,1.18-.49.28-1.03.42-1.61.42ZM103.14,70.17c-.86,0-1.61.32-2.22.95-.62.63-.93,1.41-.93,2.31,0,.58.14,1.13.42,1.63.28.5.67.89,1.14,1.16.48.27,1.01.41,1.58.41s1.11-.14,1.58-.41c.48-.27.86-.66,1.14-1.16.28-.5.42-1.05.42-1.63,0-.9-.31-1.67-.93-2.31-.62-.63-1.37-.95-2.22-.95Z"/>
    </g>
  </g>
  <g>
    <path class="cls-1" d="M108.93,69.32h1.07v1.19c.32-.47.66-.82,1.01-1.04.35-.23.72-.34,1.11-.34.29,0,.6.09.93.28l-.55.88c-.22-.09-.4-.14-.55-.14-.35,0-.69.14-1.01.43-.32.29-.57.73-.74,1.33-.13.46-.19,1.4-.19,2.81v2.75h-1.07v-8.13Z"/>
    <g>
      <path class="cls-1" d="M108.93,69.32h1.07v1.19c.32-.47.66-.82,1.01-1.04.35-.23.72-.34,1.11-.34.29,0,.6.09.93.28l-.55.88c-.22-.09-.4-.14-.55-.14-.35,0-.69.14-1.01.43-.32.29-.57.73-.74,1.33-.13.46-.19,1.4-.19,2.81v2.75h-1.07v-8.13Z"/>
      <path class="cls-1" d="M110.02,77.47h-1.12v-8.17h1.12v1.14c.31-.44.63-.77.97-.99.36-.23.73-.35,1.12-.35.29,0,.61.09.94.28h.02s-.01.03-.01.03l-.56.89h-.02c-.22-.1-.4-.15-.54-.15-.34,0-.68.14-1,.42-.32.28-.57.73-.73,1.32-.13.46-.19,1.4-.19,2.8v2.77ZM108.95,77.42h1.02v-2.72c0-1.4.07-2.35.2-2.81.17-.6.42-1.06.75-1.34.33-.29.67-.44,1.03-.44.15,0,.33.05.54.14l.52-.84c-.32-.17-.62-.26-.89-.26-.38,0-.75.11-1.09.34-.35.23-.69.57-1,1.04l-.04.06v-1.24h-1.02v8.08Z"/>
    </g>
  </g>
  <g>
    <path class="cls-1" d="M122.25,70.2l-.67.69c-.56-.54-1.11-.81-1.64-.81-.34,0-.63.11-.87.34-.24.22-.36.48-.36.78,0,.26.1.51.3.75.2.24.62.53,1.26.86.78.4,1.31.79,1.58,1.16.27.38.41.8.41,1.28,0,.67-.23,1.23-.7,1.69-.47.46-1.06.69-1.76.69-.47,0-.92-.1-1.34-.31-.43-.2-.78-.49-1.06-.84l.66-.75c.53.6,1.1.9,1.7.9.42,0,.78-.13,1.07-.4.29-.27.44-.58.44-.95,0-.3-.1-.56-.29-.8-.19-.23-.63-.52-1.32-.87-.73-.38-1.23-.75-1.5-1.12-.26-.37-.4-.79-.4-1.26,0-.62.21-1.13.63-1.53.42-.41.96-.61,1.6-.61.75,0,1.5.36,2.26,1.08Z"/>
    <g>
      <path class="cls-1" d="M122.25,70.2l-.67.69c-.56-.54-1.11-.81-1.64-.81-.34,0-.63.11-.87.34-.24.22-.36.48-.36.78,0,.26.1.51.3.75.2.24.62.53,1.26.86.78.4,1.31.79,1.58,1.16.27.38.41.8.41,1.28,0,.67-.23,1.23-.7,1.69-.47.46-1.06.69-1.76.69-.47,0-.92-.1-1.34-.31-.43-.2-.78-.49-1.06-.84l.66-.75c.53.6,1.1.9,1.7.9.42,0,.78-.13,1.07-.4.29-.27.44-.58.44-.95,0-.3-.1-.56-.29-.8-.19-.23-.63-.52-1.32-.87-.73-.38-1.23-.75-1.5-1.12-.26-.37-.4-.79-.4-1.26,0-.62.21-1.13.63-1.53.42-.41.96-.61,1.6-.61.75,0,1.5.36,2.26,1.08Z"/>
      <path class="cls-1" d="M119.79,77.67c-.47,0-.93-.1-1.35-.31-.43-.2-.79-.49-1.07-.85v-.02s.68-.78.68-.78l.02.02c.53.59,1.09.9,1.68.9.41,0,.77-.13,1.06-.4.29-.26.43-.58.43-.93,0-.29-.1-.55-.29-.78-.19-.23-.63-.51-1.31-.86-.73-.38-1.24-.75-1.51-1.12-.27-.37-.4-.8-.4-1.27,0-.62.22-1.14.64-1.55.42-.41.97-.62,1.62-.62.75,0,1.52.37,2.28,1.09l.02.02-.71.73-.02-.02c-.55-.53-1.1-.8-1.63-.8-.33,0-.62.11-.86.33-.24.22-.36.48-.36.77,0,.26.1.51.29.74.2.24.62.53,1.25.85.78.4,1.31.8,1.59,1.17.28.38.42.81.42,1.29,0,.67-.24,1.25-.71,1.71-.47.47-1.07.7-1.78.7ZM117.42,76.5c.27.35.62.62,1.04.82.42.2.87.3,1.33.3.69,0,1.28-.23,1.74-.69.46-.46.7-1.02.7-1.68,0-.47-.14-.89-.41-1.26-.28-.37-.81-.76-1.58-1.16-.64-.33-1.06-.62-1.26-.86-.2-.24-.3-.5-.3-.77,0-.3.12-.57.37-.8.25-.23.54-.34.89-.34.53,0,1.08.27,1.64.8l.64-.66c-.75-.7-1.5-1.06-2.23-1.06-.64,0-1.17.2-1.58.6-.42.4-.63.91-.63,1.52,0,.46.13.88.39,1.24.26.36.76.74,1.49,1.11.68.35,1.13.64,1.33.87.2.24.3.51.3.81,0,.37-.15.69-.45.96-.3.27-.66.41-1.09.41-.6,0-1.17-.3-1.7-.89l-.63.71Z"/>
    </g>
  </g>
  <g>
    <path class="cls-1" d="M127.95,69.12c1.25,0,2.29.45,3.12,1.36.75.82,1.12,1.8,1.12,2.93s-.4,2.12-1.19,2.97c-.79.85-1.81,1.27-3.06,1.27s-2.27-.42-3.06-1.27c-.79-.85-1.19-1.84-1.19-2.97s.37-2.1,1.12-2.92c.82-.91,1.87-1.36,3.13-1.36ZM127.95,70.15c-.87,0-1.62.32-2.24.96-.62.64-.94,1.41-.94,2.32,0,.59.14,1.13.43,1.64.28.51.67.9,1.15,1.17.48.28,1.02.41,1.6.41s1.11-.14,1.6-.41c.48-.28.87-.67,1.15-1.17.28-.51.43-1.05.43-1.64,0-.91-.31-1.68-.94-2.32-.63-.64-1.37-.96-2.24-.96Z"/>
    <g>
      <path class="cls-1" d="M127.95,69.12c1.25,0,2.29.45,3.12,1.36.75.82,1.12,1.8,1.12,2.93s-.4,2.12-1.19,2.97c-.79.85-1.81,1.27-3.06,1.27s-2.27-.42-3.06-1.27c-.79-.85-1.19-1.84-1.19-2.97s.37-2.1,1.12-2.92c.82-.91,1.87-1.36,3.13-1.36ZM127.95,70.15c-.87,0-1.62.32-2.24.96-.62.64-.94,1.41-.94,2.32,0,.59.14,1.13.43,1.64.28.51.67.9,1.15,1.17.48.28,1.02.41,1.6.41s1.11-.14,1.6-.41c.48-.28.87-.67,1.15-1.17.28-.51.43-1.05.43-1.64,0-.91-.31-1.68-.94-2.32-.63-.64-1.37-.96-2.24-.96Z"/>
      <path class="cls-1" d="M127.95,77.67c-1.25,0-2.29-.43-3.08-1.28-.79-.85-1.19-1.85-1.19-2.99s.38-2.11,1.13-2.94c.83-.91,1.88-1.37,3.14-1.37s2.31.46,3.14,1.36c.75.83,1.13,1.82,1.13,2.94s-.4,2.14-1.19,2.99c-.79.85-1.83,1.28-3.07,1.28ZM127.95,69.14c-1.25,0-2.29.46-3.11,1.36-.74.82-1.12,1.79-1.12,2.91s.4,2.11,1.18,2.95c.78.84,1.81,1.26,3.05,1.26s2.25-.42,3.04-1.26c.78-.84,1.18-1.83,1.18-2.95s-.38-2.1-1.12-2.91c-.82-.89-1.86-1.35-3.1-1.35ZM127.95,76.67c-.58,0-1.12-.14-1.61-.42-.49-.28-.88-.67-1.16-1.18-.29-.51-.43-1.06-.43-1.65,0-.91.32-1.7.94-2.34.63-.64,1.38-.97,2.26-.97s1.62.33,2.25.97c.63.64.95,1.43.95,2.34,0,.59-.14,1.14-.43,1.65-.29.51-.68.9-1.16,1.18-.49.28-1.03.42-1.61.42ZM127.95,70.17c-.86,0-1.61.32-2.22.95-.62.63-.93,1.41-.93,2.31,0,.58.14,1.13.42,1.63.28.5.67.89,1.14,1.16.48.27,1.01.41,1.58.41s1.11-.14,1.58-.41c.48-.27.86-.66,1.14-1.16.28-.5.42-1.05.42-1.63,0-.9-.31-1.67-.93-2.31-.62-.63-1.37-.95-2.22-.95Z"/>
    </g>
  </g>
  <g>
    <rect class="cls-1" x="133.98" y="66.18" width="1.04" height="11.26"/>
    <g>
      <rect class="cls-1" x="133.98" y="66.18" width="1.04" height="11.26"/>
      <path class="cls-1" d="M135.04,77.47h-1.09v-11.31h1.09v11.31ZM134,77.42h.99v-11.22h-.99v11.22Z"/>
    </g>
  </g>
  <g>
    <path class="cls-1" d="M137.06,69.32h1.04v3.79c0,.93.05,1.56.15,1.91.15.5.44.89.86,1.18.42.29.93.43,1.51.43s1.08-.14,1.49-.42c.41-.28.69-.65.84-1.11.1-.31.16-.98.16-1.99v-3.79h1.07v3.98c0,1.12-.13,1.96-.39,2.53-.26.57-.66,1.01-1.18,1.33-.53.32-1.18.48-1.98.48s-1.45-.16-1.98-.48c-.53-.32-.93-.77-1.19-1.34-.26-.57-.39-1.44-.39-2.59v-3.91Z"/>
    <g>
      <path class="cls-1" d="M137.06,69.32h1.04v3.79c0,.93.05,1.56.15,1.91.15.5.44.89.86,1.18.42.29.93.43,1.51.43s1.08-.14,1.49-.42c.41-.28.69-.65.84-1.11.1-.31.16-.98.16-1.99v-3.79h1.07v3.98c0,1.12-.13,1.96-.39,2.53-.26.57-.66,1.01-1.18,1.33-.53.32-1.18.48-1.98.48s-1.45-.16-1.98-.48c-.53-.32-.93-.77-1.19-1.34-.26-.57-.39-1.44-.39-2.59v-3.91Z"/>
      <path class="cls-1" d="M140.62,77.67c-.79,0-1.46-.16-2-.48-.53-.32-.94-.78-1.2-1.35-.26-.57-.39-1.45-.39-2.6v-3.93h1.09v3.82c0,.92.05,1.56.15,1.9.15.49.43.88.85,1.17.42.28.92.43,1.5.43s1.07-.14,1.47-.42c.4-.28.68-.65.83-1.1.1-.31.16-.98.16-1.99v-3.82h1.12v4.01c0,1.12-.13,1.97-.39,2.54-.26.57-.66,1.02-1.19,1.34-.53.32-1.2.48-1.99.48ZM137.08,69.34v3.89c0,1.14.13,2.01.39,2.58.26.57.66,1.02,1.18,1.33.52.32,1.19.48,1.97.48s1.45-.16,1.97-.48c.52-.32.91-.76,1.17-1.32.26-.56.39-1.41.39-2.52v-3.96h-1.02v3.77c0,1.01-.05,1.69-.16,2-.16.46-.44.84-.85,1.12-.41.28-.91.43-1.5.43s-1.1-.15-1.52-.44c-.42-.29-.72-.69-.87-1.19-.1-.35-.15-.99-.15-1.92v-3.77h-.99Z"/>
    </g>
  </g>
  <g>
    <path class="cls-1" d="M154.38,71.01l-.83.52c-.72-.95-1.7-1.42-2.95-1.42-.99,0-1.82.32-2.48.95-.66.64-.99,1.41-.99,2.32,0,.59.15,1.15.45,1.67.3.52.72.93,1.24,1.21.53.29,1.12.43,1.77.43,1.2,0,2.18-.47,2.94-1.42l.83.55c-.39.58-.91,1.04-1.57,1.36-.66.32-1.41.48-2.24.48-1.29,0-2.36-.41-3.21-1.22-.85-.81-1.27-1.81-1.27-2.97,0-.78.2-1.51.6-2.19.4-.67.94-1.2,1.64-1.58.69-.38,1.47-.57,2.33-.57.54,0,1.06.08,1.56.25.5.16.93.38,1.28.64.35.26.65.6.89,1Z"/>
    <g>
      <path class="cls-1" d="M154.38,71.01l-.83.52c-.72-.95-1.7-1.42-2.95-1.42-.99,0-1.82.32-2.48.95-.66.64-.99,1.41-.99,2.32,0,.59.15,1.15.45,1.67.3.52.72.93,1.24,1.21.53.29,1.12.43,1.77.43,1.2,0,2.18-.47,2.94-1.42l.83.55c-.39.58-.91,1.04-1.57,1.36-.66.32-1.41.48-2.24.48-1.29,0-2.36-.41-3.21-1.22-.85-.81-1.27-1.81-1.27-2.97,0-.78.2-1.51.6-2.19.4-.67.94-1.2,1.64-1.58.69-.38,1.47-.57,2.33-.57.54,0,1.06.08,1.56.25.5.16.93.38,1.28.64.35.26.65.6.89,1Z"/>
      <path class="cls-1" d="M150.57,77.67c-1.29,0-2.37-.41-3.22-1.23-.85-.82-1.28-1.82-1.28-2.99,0-.79.2-1.53.6-2.2.4-.67.95-1.21,1.65-1.58.69-.38,1.48-.57,2.34-.57.54,0,1.07.08,1.57.25.5.16.93.38,1.28.64.35.26.65.6.9,1.01v.02s-.86.54-.86.54v-.02c-.72-.94-1.71-1.41-2.94-1.41-.98,0-1.81.32-2.46.95-.65.63-.98,1.4-.98,2.3,0,.58.15,1.14.45,1.66.3.51.71.92,1.24,1.2.52.28,1.11.43,1.76.43,1.19,0,2.17-.48,2.92-1.41v-.02s.88.57.88.57v.02c-.4.58-.93,1.04-1.59,1.37-.66.32-1.42.49-2.25.49ZM150.65,69.14c-.85,0-1.63.19-2.32.56-.69.37-1.24.9-1.63,1.57-.39.67-.59,1.4-.59,2.18,0,1.16.43,2.15,1.27,2.96.84.81,1.91,1.22,3.19,1.22.83,0,1.58-.16,2.23-.48.64-.32,1.16-.76,1.55-1.33l-.79-.52c-.76.94-1.75,1.42-2.94,1.42-.66,0-1.26-.15-1.78-.43-.53-.29-.95-.7-1.25-1.22-.3-.52-.46-1.09-.46-1.68,0-.91.33-1.7.99-2.33.66-.64,1.5-.96,2.49-.96,1.24,0,2.23.48,2.95,1.42l.79-.49c-.24-.39-.53-.72-.87-.98-.35-.26-.77-.47-1.27-.64-.5-.16-1.02-.24-1.56-.24Z"/>
    </g>
  </g>
  <g>
    <path class="cls-1" d="M156.74,65.98c.24,0,.44.08.61.25s.25.37.25.61-.08.44-.25.61-.37.25-.61.25-.43-.08-.6-.25-.25-.37-.25-.61.08-.44.25-.61.37-.25.6-.25ZM156.23,69.32h1.04v8.13h-1.04v-8.13Z"/>
    <g>
      <path class="cls-1" d="M156.74,65.98c.24,0,.44.08.61.25s.25.37.25.61-.08.44-.25.61-.37.25-.61.25-.43-.08-.6-.25-.25-.37-.25-.61.08-.44.25-.61.37-.25.6-.25ZM156.23,69.32h1.04v8.13h-1.04v-8.13Z"/>
      <path class="cls-1" d="M157.29,77.47h-1.09v-8.17h1.09v8.17ZM156.25,77.42h.99v-8.08h-.99v8.08ZM156.74,67.74c-.24,0-.45-.09-.62-.26-.17-.17-.26-.38-.26-.62s.09-.46.26-.63.38-.26.62-.26.45.09.63.26.26.39.26.63-.09.45-.26.62-.38.26-.63.26ZM156.74,66.01c-.22,0-.42.08-.58.25-.16.16-.25.37-.25.6s.08.43.25.59c.16.16.36.25.58.25s.43-.08.59-.25c.16-.16.25-.36.25-.59s-.08-.43-.25-.6c-.16-.16-.36-.25-.59-.25Z"/>
    </g>
  </g>
  <g>
    <path class="cls-1" d="M163.29,69.12c1.25,0,2.29.45,3.12,1.36.75.82,1.12,1.8,1.12,2.93s-.4,2.12-1.19,2.97c-.79.85-1.81,1.27-3.05,1.27s-2.27-.42-3.06-1.27c-.79-.85-1.19-1.84-1.19-2.97s.37-2.1,1.12-2.92c.82-.91,1.87-1.36,3.13-1.36ZM163.29,70.15c-.87,0-1.62.32-2.24.96-.62.64-.94,1.41-.94,2.32,0,.59.14,1.13.43,1.64.28.51.67.9,1.15,1.17.48.28,1.02.41,1.6.41s1.11-.14,1.6-.41c.48-.28.87-.67,1.15-1.17.28-.51.43-1.05.43-1.64,0-.91-.31-1.68-.94-2.32-.63-.64-1.37-.96-2.24-.96ZM163.8,65.51h1.6l-2.2,2.3h-1.03l1.63-2.3Z"/>
    <g>
      <path class="cls-1" d="M163.29,69.12c1.25,0,2.29.45,3.12,1.36.75.82,1.12,1.8,1.12,2.93s-.4,2.12-1.19,2.97c-.79.85-1.81,1.27-3.05,1.27s-2.27-.42-3.06-1.27c-.79-.85-1.19-1.84-1.19-2.97s.37-2.1,1.12-2.92c.82-.91,1.87-1.36,3.13-1.36ZM163.29,70.15c-.87,0-1.62.32-2.24.96-.62.64-.94,1.41-.94,2.32,0,.59.14,1.13.43,1.64.28.51.67.9,1.15,1.17.48.28,1.02.41,1.6.41s1.11-.14,1.6-.41c.48-.28.87-.67,1.15-1.17.28-.51.43-1.05.43-1.64,0-.91-.31-1.68-.94-2.32-.63-.64-1.37-.96-2.24-.96ZM163.8,65.51h1.6l-2.2,2.3h-1.03l1.63-2.3Z"/>
      <path class="cls-1" d="M163.29,77.67c-1.25,0-2.29-.43-3.08-1.28-.79-.85-1.19-1.85-1.19-2.99s.38-2.11,1.13-2.94c.83-.91,1.88-1.37,3.14-1.37s2.31.46,3.14,1.36c.75.83,1.13,1.82,1.13,2.94s-.4,2.14-1.19,2.99c-.79.85-1.83,1.28-3.07,1.28ZM163.29,69.14c-1.25,0-2.29.46-3.11,1.36-.74.82-1.12,1.79-1.12,2.91s.4,2.11,1.18,2.95c.78.84,1.81,1.26,3.05,1.26s2.25-.42,3.04-1.26c.78-.84,1.18-1.83,1.18-2.95s-.38-2.1-1.12-2.91c-.82-.89-1.86-1.35-3.1-1.35ZM163.29,76.67c-.58,0-1.12-.14-1.61-.42-.49-.28-.88-.67-1.16-1.18-.29-.51-.43-1.06-.43-1.65,0-.91.32-1.7.94-2.34.63-.64,1.38-.97,2.26-.97s1.62.33,2.25.97c.63.64.95,1.43.95,2.34,0,.59-.14,1.14-.43,1.65-.29.51-.68.9-1.16,1.18-.49.28-1.03.42-1.61.42ZM163.29,70.17c-.86,0-1.61.32-2.22.95-.62.63-.93,1.41-.93,2.31,0,.58.14,1.13.42,1.63.28.5.67.89,1.14,1.16.48.27,1.01.41,1.58.41s1.11-.14,1.58-.41c.48-.27.86-.66,1.14-1.16.28-.5.42-1.05.42-1.63,0-.9-.31-1.67-.93-2.31-.62-.63-1.37-.95-2.22-.95ZM163.22,67.83h-1.08l.03-.04,1.63-2.31h1.67l-2.24,2.34ZM162.22,67.78h.97l2.16-2.25h-1.54l-1.59,2.25Z"/>
    </g>
  </g>
  <g>
    <path class="cls-1" d="M169.48,69.32h1.04v1.46c.42-.56.88-.97,1.39-1.25.51-.27,1.06-.41,1.66-.41s1.15.15,1.62.46c.47.31.82.72,1.05,1.25.22.52.34,1.34.34,2.44v4.18h-1.04v-3.87c0-.93-.04-1.56-.12-1.87-.13-.54-.36-.94-.71-1.21-.34-.27-.79-.41-1.35-.41-.63,0-1.2.21-1.7.63-.5.42-.83.93-.99,1.55-.1.4-.15,1.14-.15,2.21v2.98h-1.04v-8.13Z"/>
    <g>
      <path class="cls-1" d="M169.48,69.32h1.04v1.46c.42-.56.88-.97,1.39-1.25.51-.27,1.06-.41,1.66-.41s1.15.15,1.62.46c.47.31.82.72,1.05,1.25.22.52.34,1.34.34,2.44v4.18h-1.04v-3.87c0-.93-.04-1.56-.12-1.87-.13-.54-.36-.94-.71-1.21-.34-.27-.79-.41-1.35-.41-.63,0-1.2.21-1.7.63-.5.42-.83.93-.99,1.55-.1.4-.15,1.14-.15,2.21v2.98h-1.04v-8.13Z"/>
      <path class="cls-1" d="M176.6,77.47h-1.09v-3.89c0-.93-.04-1.56-.12-1.87-.12-.53-.36-.93-.7-1.2-.34-.27-.79-.4-1.33-.4-.63,0-1.19.21-1.69.62-.5.41-.83.93-.98,1.54-.1.4-.15,1.14-.15,2.2v3h-1.09v-8.17h1.09v1.41c.41-.53.87-.93,1.36-1.2.51-.27,1.07-.41,1.67-.41s1.16.16,1.63.47c.47.31.83.73,1.05,1.26.22.52.34,1.35.34,2.45v4.2ZM175.56,77.42h.99v-4.15c0-1.1-.11-1.91-.34-2.43-.22-.52-.57-.93-1.04-1.24-.47-.3-1.01-.46-1.61-.46s-1.15.14-1.65.41c-.5.27-.97.69-1.39,1.24l-.04.06v-1.5h-.99v8.08h.99v-2.95c0-1.07.05-1.81.15-2.21.16-.62.5-1.14,1-1.56.5-.42,1.08-.63,1.72-.63.56,0,1.02.14,1.36.41.35.27.59.69.71,1.22.08.31.12.95.12,1.88v3.85Z"/>
    </g>
  </g>
  <g>
    <path class="cls-1" d="M32.87,92.48l1.03.18.44-.18c.05.3.17.97.76.46.11.02.37.2.33.18,0,0-.01.35-.2.46,1.44.35,3.91.57,4.45.57h6.42c2.43-.71,1.3,5.09,1.33,5.16.45,1.07-.24,1.56-.38,2.08-.18.7-.4,1.55-.42,2.2h-.82c.21-.54.42-1.25.42-1.79,0-.65.18-1.2-.71-1.84-.02.17-.05.35-.09.53.12.23.16,1.24-.28,1.38-.27.86-.62,1.34-.91,2.16h-.81c.44-.77,1.07-1.44,1.08-1.98l.04-1.22c-.09,0-.24.04-.34.03-.1,0-.17.49-.28.48-.06,0-.21-.33-.28-.34-.07,0-.15.46-.22.45-.08,0-.11-.52-.19-.53,0,.5-.37.31-.42.3-.04,0,.03-.08.11-.42-.48-.14-.95-.56-.98-.56-1.45-.17-2.3-.24-3.77-.49-1.01,1.26-.47,2.48-.39,3.86-.3.03-.33,0-.64.03-.07-.32.17-.42.17-.96s-.14-1.27-.28-1.85c-.36.45-.21,1.78-.4,2.44,0,.03-.4-.16-.53,0-.17-.28.2-1.2.2-1.57,0-.54.05-1.31-.29-1.57-2.16-1.69-.82-3.05-1.93-4.29-.35-.38-.68-.13-1.22-.15-.31.3-.84.1-1.14-.2-.03-.52.85-1.13.9-1.67.07-.72-.35-.24-.4-.94.27-.37.51.18.68.19.18-.19.18-.26-.06-.61Z"/>
    <path class="cls-1" d="M35.68,93.99h1.26c.03.27.35.38.57.49-.22.11-.43-.32-.97-.32s-.25.03-.11.32c-.29-.14-.51-.14-.75-.49Z"/>
    <path class="cls-1" d="M42.34,98.95c-.23.36-.21.33-.08.6.13-.18.59-.42,1.07-.54-.38.31-.76.43-.82.96l-.47-.42s.21.43-.33.41h-.83v-.82c.51-.03.89-.02,1.46-.2Z"/>
    <path class="cls-1" d="M46.46,99.42s-.19.1-.33-.08c-.14.18-.14.25,0,.54-.29-.14-.29-.51-.11-.65-.18-.14-.54.11-.86.01,1.17-.33,1.19.1,1.3.18Z"/>
    <path class="cls-1" d="M36.64,99.22c.11.22-.11.22-.11.76s.18.25.32.54c-.29-.14-.34-.05-.22.43-.31-.38-.54-.43-.54-.97s.43-.54.54-.76Z"/>
    <path class="cls-1" d="M39.94,108.06c-5.83,0-10.57-4.74-10.57-10.56s4.74-10.56,10.57-10.56,10.57,4.74,10.57,10.56-4.74,10.56-10.57,10.56ZM39.94,87.83c-5.33,0-9.67,4.34-9.67,9.67s4.34,9.67,9.67,9.67,9.67-4.34,9.67-9.67-4.34-9.67-9.67-9.67Z"/>
  </g>
  <g>
    <path class="cls-1" d="M182.6,94.37c.3.49,1.28.75,1.28,1.29s-.6,0-.82.47c1.13.28,3.17.51,4.54.43-.05.38.18.29.26.4.32.43,1.23-1.13,2.31-1.5.11,1.12-.14,3.11.25,4.27-.97-.18-2.04-1.04-3.05-1.27-.04.13.18.5.18.46-.19.47-.78.91-.82,1.48-.54-.21-.84-1-1.11-.97-.54.07-1.76.33-2.55.3.34.45.34.82,0,1.09-.54-.09-.93-.66-1.52-.88-1.24-.09-2.37-.31-2.95-.39.13.34.18,1.01-.11,1.5-.53-.46-.96-1.11-1.42-1.61,1.15-.79.18-1.69.03-2.37-.11.37,1.39,2.51-.9,2.47-2.31-.03-2.49-.98-3.21-1.45.73.3,1.03.64,1.27.46-.19-.12-.59-.53-1.08-.84,2.15-1.65,6.27-1.85,7.32-1.92.73-.29,1.43-.73,2.09-1.43Z"/>
    <path class="cls-1" d="M182.29,108.17c-5.83,0-10.57-4.74-10.57-10.56s4.74-10.56,10.57-10.56,10.57,4.74,10.57,10.56-4.74,10.56-10.57,10.56ZM182.29,87.94c-5.33,0-9.67,4.34-9.67,9.67s4.34,9.67,9.67,9.67,9.67-4.34,9.67-9.67-4.34-9.67-9.67-9.67Z"/>
  </g>
  <g>
    <path class="cls-1" d="M85.98,94.12s-.51-.73-1.63-.67c0,0-2.14-1.69-3.26.39l.11.22-.62,1.29s-.39.79,1.35.34c0,0-.67,1.63-.34,2.36,0,0-.28,1.63.22,1.85,0,0-.22,1.24,1.69,1.63,0,0-.96.79.06.84l1.18.06s.22-.39.11-.96l3.65.11.56-.34s.96.45,1.35.39c0,0-1.01.79.28.67l.56-.17-.11-.62.79.06s-.62.73-.22.79h.96v-.73l.9-.56-.11-.62s.56-.84.11-1.01c0,0,.39-1.07.11-2.25,0,0,.06-1.01-.34-1.18,0,0,.34-1.52-1.4-1.8,0,0-1.69-.51-2.59-.06,0,0-1.07-.34-1.85.06-.22-.26-.72-.3-1.52-.11Z"/>
    <path class="cls-1" d="M87.39,108.17c-5.83,0-10.57-4.74-10.57-10.56s4.74-10.56,10.57-10.56,10.57,4.74,10.57,10.56-4.74,10.56-10.57,10.56ZM87.39,87.94c-5.33,0-9.67,4.34-9.67,9.67s4.34,9.67,9.67,9.67,9.67-4.34,9.67-9.67-4.34-9.67-9.67-9.67Z"/>
  </g>
  <g>
    <path class="cls-1" d="M108.67,93.92c.59.69,1.18.93,1.68,2.01.07.28.07.53,0,.74,0,0,.01.26-.53.26s-1.19-1.05-1.15-1.59c-.15-.44-.15-.92,0-1.42Z"/>
    <path class="cls-1" d="M112.6,93.92c.32.24.26.47.26,1.01,0,.27-.93,1.76-1.46,2.11-.28-.25-.17-.21-.17-.75s1.08-1.65,1.38-2.37Z"/>
    <path class="cls-1" d="M108.45,96.75c.59.69,1.23,1.1,1.89,1.99.07.29.07.54,0,.74,0,0,.01.26-.53.26s-1.4-.39-1.36-.93c-.3-.81-.3-1.5,0-2.07Z"/>
    <path class="cls-1" d="M108.89,91.33c.38.49,1.18,1.24,1.32,1.8l.12,1.2c-.28-.04-1.49-1.12-1.44-1.57v-1.43Z"/>
    <path class="cls-1" d="M112.67,91.53c.04.64-.48,2.58-1.38,2.79,0,0-.28,0-.28-.53s.89-1.59,1.66-2.26Z"/>
    <path class="cls-1" d="M112.87,96.3c.08.32.3.54.3,1.08s-.46,1.69-1.15,2.35c-.19.19-.45.19-.78,0-.07-.29-.07-.61,0-.98-.01-.54,1.08-1.53,1.63-2.45Z"/>
    <path class="cls-1" d="M110.83,107.8v-1.52s4.05-1.91,4.64-.25l.11.59.81-.53s-.06-2.42-2.25-1.8c0,0-1.1.39-2.95,1.63l-.31.17v-4.24s3.57-1.66,5-.34c0,0,.76,1.12.96,1.85,0,0,0,.93.62,1.26l.51.28.11-.37s-.87-.34-.96-1.99c0,0,.25-3.26-2.67-2.75,0,0-2.56.81-3.54,1.77v-9.24s1.38-.9.17-3.34l-.31-.56s-.84,1.24-1.01,2.22c0,0-.14.81.73,1.77v11.91s-4.27-2.92-5.65-1.63c0,0-.79.39-.37,2.59l.51.7s-.14-1.91,1.88-2.16c0,0,2.16-.11,3.68.79v2.87l.28.34Z"/>
    <path class="cls-1" d="M111.11,108.17c-5.83,0-10.57-4.74-10.57-10.56s4.74-10.56,10.57-10.56,10.57,4.74,10.57,10.56-4.74,10.56-10.57,10.56ZM111.11,87.94c-5.33,0-9.67,4.34-9.67,9.67s4.34,9.67,9.67,9.67,9.67-4.34,9.67-9.67-4.34-9.67-9.67-9.67Z"/>
  </g>
  <g>
    <path class="cls-1" d="M67.51,95.27c.46,0,2.39.06,2.42.06,0-.03,1.01.87,1.04.85-.24.32-.47.52-.47.52-.31-.23-1.28-.61-2.04-.58-.56.03-1.1.23-1.16.27-.04.03-.74.37-.6.77.77-.84,1.57-.78,1.69-.78,1.92.08,3.4,1.28,3.4,3.08,0,1.89-1.91,3.15-3.2,3.15-1.59,0-2.86-1.09-3.6-2.64-4.47.02-5.08-.08-5.09-.1-.59-1.04-1.67-1.08-2.43-.77-.06-.1-.71-1.11-1.14-2h9.33c1.26-1.16,1.87-1.82,1.87-1.82Z"/>
    <path class="cls-1" d="M60.61,91.69l.32-.03.03,3.55s2.38-.36,2.91-.46c.07-.01.61.76.71,1.13-.06-.25.35-.31.28-.64-.03-.13-.49-.48-.55-.63.56.19,1.1.8,1.59,1.16l-.79-.38-.49.58c.03.38.27.96.27.96l-9.02-.25c.44-.76.58-.59,1.32-1.27-.15.12.34.09.84.06.06,0-.02-1.46.04-1.47.16,0,.26-.01.38-.01.05,0-.02,1.45.03,1.45.51-.03,2.14-.18,2.13-.18v-3.57Z"/>
    <path class="cls-1" d="M56.55,100.78c0-.95.77-1.71,1.71-1.71s1.71.77,1.71,1.71-.77,1.71-1.71,1.71-1.71-.77-1.71-1.71Z"/>
    <path class="cls-1" d="M63.66,108.17c-5.83,0-10.57-4.74-10.57-10.56s4.74-10.56,10.57-10.56,10.57,4.74,10.57,10.56-4.74,10.56-10.57,10.56ZM63.66,87.94c-5.33,0-9.67,4.34-9.67,9.67s4.34,9.67,9.67,9.67,9.67-4.34,9.67-9.67-4.34-9.67-9.67-9.67Z"/>
  </g>
  <g>
    <g>
      <path class="cls-1" d="M136.64,94.06s-3.34-.98-2.81.96l.37.76s.03.67-1.46,1.04c0,0-.59-1.12-1.21-1.12,0,0-1.12.2-.87.87,0,0,.08.93-.67.65l-1.01-1.71s.06-.93.79-.67c0,0,.37.7,1.21-.11,0,0,1.71-1.21,3.29-1.4.97-.11,1.77.14,2.39.76Z"/>
      <path class="cls-1" d="M134.44,96.11s-.67.87-1.71,1.01c0,0,3.74,7.5,4.81,8.57,0,0,2.08-.65,2.7-1.83-2.18-2.58-4.11-5.16-5.79-7.76Z"/>
    </g>
    <path class="cls-1" d="M134.84,109.51c-5.83,0-10.57-4.74-10.57-10.56s4.74-10.56,10.57-10.56,10.57,4.74,10.57,10.56-4.74,10.56-10.57,10.56ZM134.84,89.28c-5.33,0-9.67,4.34-9.67,9.67s4.34,9.67,9.67,9.67,9.67-4.34,9.67-9.67-4.34-9.67-9.67-9.67Z"/>
  </g>
  <g>
    <path class="cls-1" d="M152.41,92.55l-.65.22s-.37,1.07.76,1.12l.39.08-.2.65.17.31-.11.51.25.11-.2.22.14.17s.03,1.07.25,1.18c0,0,.25.65.14.76l.22-.03s.14.48.08.79c-.06.31.37.31.37.31l.2.17.56,2.75s-.81.14-.65.62h.45s-.51.62.48.62c0,0,.56-.11.73-.34s.67-.67.67-.67c0,0-.34-.11-.22-.37.11-.25.28-.17.28-.17,0,0,.06-.67.06-.79s-.08-.67-.08-.67l.06-.37.31-.79v-.22s1.1.56,2.53.11c0,0,1.01-.14,1.21.11,0,0,1.01,1.29,1.4,1.6l.03.84s-.81.7-.79.81c0,0,.98.14,1.15-.14l.14-1.32h.31s.08.59.22.81l.03.84s-.67.17-.56.53l.81.06s.31-.25.37-.56l.14-1.71s-.65-.67-.62-1.07c0,0,.11-1.43.06-1.66-.06-.22.56.2.56.2,0,0,.45.08.62-.03.17-.11.37,0,.37,0l.31-.08.34.06.31-.22.67.08.17-.17s.53-.03.59-.48c0,0-.28-.34-1.63-.42,0,0-2.11-.25-2.84-1.26,0,0-.7-.65-2.61-.87l-3.18-.14s-1.32-.51-1.49-1.32c0,0,0-1.1-1.18-1.49,0,0-1.1-.11-1.4.03-.17-.05-.33.17-.51.67Z"/>
    <path class="cls-1" d="M158.56,108.08c-5.83,0-10.57-4.74-10.57-10.56s4.74-10.56,10.57-10.56,10.57,4.74,10.57,10.56-4.74,10.56-10.57,10.56ZM158.56,87.85c-5.33,0-9.67,4.34-9.67,9.67s4.34,9.67,9.67,9.67,9.67-4.34,9.67-9.67-4.34-9.67-9.67-9.67Z"/>
  </g>
</svg>