<?xml version="1.0" encoding="utf-8"?>
<!-- Generator: Adobe Illustrator 26.3.1, SVG Export Plug-In . SVG Version: 6.00 Build 0)  -->
<svg version="1.1" id="Calque_1" xmlns="http://www.w3.org/2000/svg" xmlns:xlink="http://www.w3.org/1999/xlink" x="0px" y="0px"
	 viewBox="0 0 386.7527 101.1509" style="enable-background:new 0 0 386.7527 101.1509;" xml:space="preserve">
<style type="text/css">
	.st0{fill:#FFFFFF;}
	.st1{fill:#007BC4;}
	.st2{fill:#010202;}
</style>
<g>
	<g>
		<g>
			<path class="st0" d="M2.2155,98.9354h97.0549V2.2155H2.2155V98.9354z"/>
		</g>
		<g>
			<path class="st1" d="M0,0v101.1509h386.7527V0H0z M99.2704,98.9354H2.2155V2.2155h97.0549V98.9354z"/>
		</g>
	</g>
	<g>
		<path class="st0" d="M153.8796,55.9585h-18.034v21.1137h-12.777V24.0702h35.4555v9.865h-22.6785V46.13h18.034V55.9585z"/>
		<path class="st0" d="M186.5808,67.1706h-17.5093l-3.058,9.9016h-13.6507l19.4393-53.0019h12.0128l19.584,53.0019h-13.7237
			L186.5808,67.1706z M172.1295,57.3056h11.3947l-5.7156-18.383L172.1295,57.3056z"/>
		<path class="st0" d="M220.5004,77.0722H207.76V24.0702h12.7405V77.0722z"/>
		<path class="st0" d="M249.5769,62.6567l10.5562-38.5865h14.2701l-17.8379,53.0019h-13.978l-17.6919-53.0019h14.1605
			L249.5769,62.6567z"/>
		<path class="st0" d="M298.254,58.3247h-6.9166v18.7475h-12.7769V24.0702h20.8581c6.2846,0,11.1995,1.3943,14.7434,4.1816
			c3.5427,2.7885,5.314,6.7278,5.314,11.8183c0,3.6855-0.7453,6.7397-2.2384,9.1638c-1.4931,2.4241-3.8284,4.388-7.0072,5.8912
			l11.0661,21.4007v0.5464h-13.6872L298.254,58.3247z M291.3373,48.4962h8.0811c2.426,0,4.2527-0.6383,5.4789-1.9155
			c1.2249-1.2778,1.8381-3.0599,1.8381-5.3467c0-2.2862-0.6194-4.0808-1.857-5.3826c-1.2375-1.3011-3.058-1.9526-5.46-1.9526
			h-8.0811V48.4962z"/>
		<path class="st0" d="M359.0215,54.5756h-20.0939v12.6681h23.7348v9.8285h-36.5117V24.0702h36.5835v9.865h-23.8065v11.1756h20.0939
			V54.5756z"/>
	</g>
	<g>
		<g>
			<path class="st1" d="M82.2179,66.0103c-0.3522,0.4811-0.7255,0.9453-1.1091,1.4007c-1.4558,1.728-3.1337,3.262-4.9855,4.5642
				c-0.0565,0.0397-0.1113,0.0817-0.1681,0.121c-0.2893,0.1999-0.5856,0.3898-0.8831,0.5781
				c-0.1136,0.072-0.2256,0.1463-0.3404,0.2165c-0.2709,0.1656-0.547,0.3228-0.8243,0.4786
				c-0.1488,0.0837-0.2966,0.1684-0.4472,0.2493c-0.2602,0.1396-0.5242,0.2724-0.7896,0.4033
				c-0.175,0.0865-0.3502,0.1724-0.5274,0.2549c-0.253,0.1178-0.5084,0.2303-0.7657,0.3401
				c-0.1974,0.0843-0.3958,0.1664-0.5957,0.2459c-0.2468,0.0981-0.495,0.1928-0.7455,0.2835
				c-0.2177,0.0789-0.4371,0.1537-0.6574,0.2269c-0.2415,0.0801-0.4834,0.1587-0.7279,0.2318
				c-0.2371,0.071-0.4766,0.136-0.7165,0.2004c-0.2348,0.0629-0.4692,0.1262-0.7065,0.1826
				c-0.2586,0.0616-0.5202,0.1151-0.7818,0.1688c-0.2255,0.0463-0.45,0.095-0.6776,0.1354
				c-0.2847,0.0506-0.5727,0.0908-0.8606,0.1321c-0.2103,0.0301-0.419,0.0646-0.6308,0.0896c-0.33,0.039-0.6636,0.065-0.9973,0.0915
				c-0.1746,0.0138-0.3474,0.0341-0.5229,0.0444c-0.5118,0.0302-1.0271,0.0472-1.5463,0.0472c-0.0002,0-0.0003,0-0.0005,0h0
				c-1.8499,0-3.6554-0.194-5.3972-0.5627c-1.1612-0.2458-2.294-0.5693-3.3928-0.9647c-1.6482-0.5931-3.2198-1.3482-4.6955-2.2457
				c-0.3577-0.2176-0.7099-0.4436-1.0561-0.6777c-0.6924-0.4682-1.3612-0.9688-2.0041-1.4996
				c-0.9644-0.7962-1.8707-1.6605-2.7115-2.5853c-0.5605-0.6166-1.0919-1.2601-1.5919-1.9283
				c-0.5001-0.6682-0.9688-1.3612-1.404-2.0767c-0.4352-0.7155-0.8369-1.4535-1.2028-2.2119
				c-0.366-0.7584-0.6962-1.5371-0.9885-2.334c-1.0231-2.789-1.5818-5.8003-1.5818-8.9396
				c0-14.3511,11.6752-26.0262,26.0263-26.0262c2.9689,0,5.8202,0.5065,8.4804,1.4262c0.0014-0.0008,0.0029-0.0014,0.0043-0.0022
				c0.0087,0.003,0.0176,0.0055,0.0263,0.0085c3.0603-1.6744,6.9528-3.0867,11.7437-3.5336
				c0.1687-0.0157,0.3271-0.0253,0.4853-0.0347l0.0443-0.1518l-6.1696-3.562l-3.6887,3.8563
				c-0.9685-0.379-1.9609-0.7098-2.9744-0.9887c-1.0135-0.2789-2.0483-0.506-3.1019-0.6775l-1.2876-5.2711h-7.1241l-1.2876,5.2711
				c-2.0665,0.3364-4.0612,0.8861-5.9648,1.6222l-3.86-4.0354l-6.1697,3.562l1.5896,5.4455c-1.52,1.2696-2.911,2.6874-4.1555,4.2288
				l-5.6287-1.643l-3.562,6.1696l4.3072,4.12c-0.1589,0.4386-0.3077,0.882-0.4464,1.3298c-0.2772,0.8956-0.5136,1.809-0.7071,2.7379
				c-0.0967,0.4645-0.1828,0.9328-0.2579,1.4048l-1.558,0.3806l-1.3517,0.3302l-3.0672,0.7493v7.1241l6.0812,1.4855
				c0.0802,0.447,0.17,0.8907,0.2693,1.3308c0.1864,0.826,0.4182,1.634,0.6711,2.4328c0.1513,0.4781,0.3026,0.9563,0.4775,1.4237
				l-0.9416,0.9007l-1.175,1.124l-2.5246,2.4149v0l3.562,6.1696l6.2166-1.8147c0.8354,0.9954,1.7342,1.9353,2.6898,2.8148
				c0.3185,0.2932,0.6434,0.5796,0.9743,0.8591l-1.8494,6.3354l6.1696,3.562h0l4.5076-4.7124
				c1.6002,0.6015,3.2652,1.0668,4.9806,1.3895l1.5644,6.4039h0h7.124h0l1.5235-6.2368c1.3254-0.206,2.6206-0.5025,3.8824-0.8781
				c0.4206-0.1251,0.8375-0.2591,1.2505-0.4014l4.4559,4.6583h0l0,0l6.1696-3.562l-1.7419-5.9677
				c1.4421-1.1437,2.7764-2.4157,3.987-3.8003l5.9495,1.7367h0l3.562-6.1696H82.2179z"/>
			<path class="st1" d="M79.2093,66.0103h-3.3088c-0.6241,0.5979-1.2877,1.1542-1.9804,1.6735
				c-0.1981,0.1485-0.3985,0.2935-0.6018,0.4352c-0.1508,0.1051-0.3009,0.2111-0.4545,0.3124
				c-0.1296,0.0854-0.2622,0.1665-0.3938,0.2491c-0.1311,0.0824-0.2617,0.1655-0.3947,0.245
				c-0.135,0.0807-0.272,0.1582-0.4089,0.236c-0.1346,0.0765-0.2693,0.1526-0.4056,0.2262
				c-0.1375,0.0743-0.2761,0.1465-0.4153,0.2178c-0.1405,0.0719-0.2819,0.1421-0.4241,0.211
				c-0.1382,0.0669-0.2767,0.1332-0.4166,0.1972c-0.15,0.0686-0.3016,0.1342-0.4534,0.1993
				c-0.1354,0.0582-0.2702,0.1172-0.4071,0.1726c-0.172,0.0696-0.3464,0.1346-0.5206,0.1998
				c-0.1197,0.0448-0.2381,0.0922-0.3587,0.1349c-0.288,0.1019-0.5788,0.198-0.8724,0.2876
				c-0.1008,0.0308-0.2034,0.0571-0.3049,0.0865c-0.2051,0.0593-0.4105,0.118-0.6181,0.1712
				c-0.1248,0.032-0.251,0.0602-0.3767,0.0899c-0.1878,0.0445-0.3758,0.088-0.5656,0.1274
				c-0.1311,0.0272-0.2631,0.052-0.3951,0.0768c-0.1886,0.0354-0.3778,0.0687-0.5681,0.0991
				c-0.1324,0.0211-0.265,0.0413-0.3981,0.06c-0.1963,0.0275-0.3937,0.0513-0.5916,0.0734
				c-0.1275,0.0142-0.2548,0.0292-0.3829,0.0411c-0.218,0.0203-0.4376,0.0353-0.6575,0.0489
				c-0.1094,0.0068-0.2182,0.016-0.328,0.0211c-0.3301,0.0154-0.6618,0.0246-0.9956,0.0246c-4.0293,0-7.8003-1.1268-11.0145-3.0818
				c-0.5844-0.3554-1.1504-0.7383-1.6962-1.1467c-0.3876-0.29-0.761-0.5974-1.1276-0.9126
				c-0.4174-0.3589-0.8241-0.7299-1.2124-1.1196c-0.7115-0.714-1.3732-1.4775-1.9782-2.2859
				c-0.8168-1.0915-1.5314-2.2639-2.1292-3.5027c-0.1797-0.3723-0.3485-0.7507-0.5064-1.1347
				c-0.4735-1.1521-0.8475-2.3551-1.1148-3.5973c-0.028-0.1298-0.0547-0.26-0.0803-0.3907
				c-0.2586-1.3227-0.3979-2.6876-0.3979-4.0848c0-11.7212,9.5358-21.257,21.2574-21.257c0.5675,0,1.1292,0.0243,1.685,0.07
				c0.0263,0.0022,0.052,0.0065,0.0784,0.0088c0.5348,0.046,1.0648,0.1095,1.5881,0.1936c0.7168-0.6314,1.5429-1.2918,2.481-1.9479
				c-0.0298-0.0076-0.0607-0.0127-0.0906-0.0202c0.0017-0.0011,0.0031-0.0022,0.0048-0.0033
				c-0.3686-0.0923-0.7429-0.1696-1.118-0.2445c-0.0758-0.0152-0.1498-0.035-0.2258-0.0494
				c-0.3789-0.072-0.7629-0.1286-1.1479-0.1822c-0.0996-0.0138-0.1974-0.0338-0.2974-0.0464
				c-0.3763-0.0476-0.7574-0.079-1.1389-0.1085c-0.1104-0.0085-0.2189-0.0238-0.3298-0.0308
				c-0.4924-0.0311-0.9888-0.0473-1.489-0.0473c-13.049,0-23.6655,10.6161-23.6655,23.6651c0,1.6311,0.1659,3.2242,0.4817,4.7633
				c0.1579,0.7695,0.3532,1.5256,0.5841,2.2662c0.2309,0.7406,0.4971,1.4656,0.797,2.1732c0.2998,0.7076,0.633,1.3976,0.9978,2.0682
				c0.5471,1.0058,1.1651,1.9679,1.8472,2.8793c0.6821,0.9114,1.4282,1.7722,2.2317,2.5757
				c1.607,1.6069,3.4433,2.9845,5.4551,4.0787c1.3412,0.7295,2.7603,1.3331,4.2415,1.7947c0.3703,0.1154,0.7444,0.222,1.1222,0.3194
				c0.7556,0.1949,1.5256,0.3533,2.3082,0.4732c1.1738,0.1799,2.3758,0.2731,3.5991,0.2731h0c0.0001,0,0.0003,0,0.0004,0
				c0.4292,0,0.8552-0.0131,1.2788-0.0358c0.1478-0.0079,0.2937-0.0231,0.4408-0.0337c0.2732-0.0198,0.5464-0.0398,0.8171-0.0689
				c0.1791-0.0192,0.3562-0.0449,0.534-0.0682c0.2343-0.0305,0.4685-0.0613,0.7006-0.0987c0.194-0.0313,0.3862-0.0677,0.5786-0.1037
				c0.2107-0.0394,0.4211-0.0798,0.6298-0.1248c0.2047-0.0442,0.408-0.092,0.6106-0.1415c0.1892-0.0461,0.3775-0.0942,0.5649-0.1448
				c0.2163-0.0585,0.4316-0.1194,0.6454-0.1839c0.1647-0.0496,0.328-0.1021,0.4912-0.1551c0.2299-0.075,0.4593-0.1511,0.6861-0.2329
				c0.1348-0.0485,0.268-0.1005,0.4016-0.1514c0.2496-0.0952,0.4989-0.191,0.7444-0.2943c0.0863-0.0363,0.171-0.0758,0.2568-0.113
				c0.3781-0.1645,0.7499-0.3406,1.1176-0.5239c0.1515-0.0754,0.2996-0.156,0.4492-0.2345
				c0.2109-0.1108,0.4212-0.2227,0.6284-0.3397c0.1786-0.1006,0.3548-0.2045,0.5306-0.3095
				c0.1676-0.1004,0.3336-0.203,0.4985-0.3074c0.1937-0.1224,0.3866-0.2456,0.5764-0.3734c0.1249-0.0842,0.247-0.1719,0.3703-0.2584
				c0.808-0.5663,1.5799-1.1795,2.3098-1.8398c0.0111-0.01,0.0225-0.0196,0.0336-0.0296c0.2477-0.2249,0.4887-0.4567,0.7266-0.6918
				c0.0227-0.0225,0.0469-0.0436,0.0695-0.0662h-0.0025C78.3526,66.9598,78.7939,66.497,79.2093,66.0103z"/>
			<path class="st1" d="M67.8176,43.3084c0.0889-0.5585-0.2868-1.0836-0.8393-1.1734c-0.5527-0.0898-1.0737,0.29-1.1636,0.8487
				c-0.09,0.5592,0.286,1.0856,0.8397,1.1751C67.2079,44.2483,67.7286,43.8673,67.8176,43.3084z"/>
			<path class="st1" d="M63.5434,45.5113c0.0911-0.5615-0.285-1.089-0.8404-1.1787c-0.5556-0.0897-1.0808,0.2927-1.173,0.8545
				c-0.0923,0.5623,0.2843,1.0911,0.8409,1.1805C62.9272,46.4569,63.4521,46.0733,63.5434,45.5113z"/>
			<path class="st1" d="M59.2376,47.7305c0.0935-0.5646-0.2832-1.0945-0.8415-1.184c-0.5585-0.0896-1.088,0.2954-1.1824,0.8603
				c-0.0946,0.5654,0.2824,1.0966,0.8419,1.1859C58.6149,48.6818,59.144,48.2956,59.2376,47.7305z"/>
			<path class="st1" d="M54.8998,49.9661c0.0958-0.5677-0.2814-1.1-0.8426-1.1894c-0.5615-0.0894-1.0952,0.2981-1.192,0.8661
				c-0.0969,0.5685,0.2806,1.1021,0.8431,1.1913C54.2705,50.9233,54.8039,50.5344,54.8998,49.9661z"/>
			<path class="st1" d="M50.5298,52.2185c0.0982-0.5709-0.2795-1.1057-0.8437-1.1949c-0.5644-0.0893-1.1025,0.3009-1.2017,0.8721
				c-0.0993,0.5717,0.2788,1.1077,0.8442,1.1968C49.8938,53.1814,50.4315,52.7899,50.5298,52.2185z"/>
			<path class="st1" d="M47.8265,56.1754c-0.1,0.5756,0.2792,1.1144,0.8467,1.2029c0.5673,0.0884,1.1073-0.3067,1.2062-0.8821
				c0.0988-0.5748-0.28-1.1123-0.8463-1.201C48.4667,55.2065,47.9264,55.6003,47.8265,56.1754z"/>
			<path class="st1" d="M55.544,45.772c0.0952-0.5639-0.2809-1.0936-0.8401-1.1835c-0.5594-0.09-1.0911,0.294-1.1873,0.8582
				c-0.0963,0.5647,0.2801,1.0956,0.8405,1.1853C54.9174,46.7218,55.4487,46.3365,55.544,45.772z"/>
			<path class="st1" d="M59.8855,43.5487c0.0929-0.5608-0.2827-1.0881-0.8389-1.1782c-0.5565-0.0901-1.0838,0.2913-1.1777,0.8524
				c-0.094,0.5616,0.2819,1.0901,0.8394,1.1799C59.2655,44.4927,59.7926,44.11,59.8855,43.5487z"/>
			<path class="st1" d="M64.195,41.3418c0.0906-0.5578-0.2845-1.0826-0.8378-1.1728c-0.5536-0.0902-1.0767,0.2886-1.1682,0.8466
				c-0.0917,0.5585,0.2837,1.0846,0.8383,1.1746C63.5816,42.2801,64.1043,41.9001,64.195,41.3418z"/>
			<path class="st1" d="M52.1882,53.8782c-0.0975,0.5724,0.2811,1.1087,0.8456,1.1973c0.5643,0.0886,1.0999-0.3039,1.1965-0.876
				c0.0964-0.5716-0.2819-1.1066-0.8452-1.1955C52.8216,52.9152,52.2857,53.3063,52.1882,53.8782z"/>
			<path class="st1" d="M56.5748,51.608c-0.0952,0.5692,0.283,1.1031,0.8445,1.1918c0.5613,0.0887,1.0925-0.3011,1.1867-0.87
				c0.0941-0.5685-0.2837-1.101-0.8441-1.19C57.2014,50.6508,56.6698,51.0393,56.5748,51.608z"/>
			<path class="st1" d="M60.9287,49.3547c-0.0928,0.5661,0.2848,1.0975,0.8433,1.1863c0.5583,0.0888,1.0853-0.2983,1.1771-0.8641
				c0.0917-0.5653-0.2856-1.0954-0.8429-1.1845C61.5487,48.4033,61.0215,48.7891,60.9287,49.3547z"/>
			<path class="st1" d="M65.2505,47.118c-0.0905,0.563,0.2866,1.0919,0.8422,1.1809c0.5554,0.089,1.0781-0.2955,1.1676-0.8582
				c0.0894-0.5622-0.2874-1.0899-0.8418-1.1791C65.8639,46.1723,65.3409,46.5556,65.2505,47.118z"/>
			<path class="st1" d="M68.3712,39.2031c0.0884-0.5548-0.2862-1.0773-0.8368-1.1676c-0.5508-0.0903-1.0698,0.286-1.1591,0.8411
				c-0.0894,0.5556,0.2855,1.0793,0.8372,1.1694C67.7641,40.136,68.2827,39.7584,68.3712,39.2031z"/>
		</g>
		<g>
			<path class="st2" d="M7.19,46.4626c0.8499-0.196,2.3777-0.5484,4.3009-0.9914l2.7799,4.1207
				c0.1178,0.1749,0.3105,0.2692,0.5066,0.2692c0.1175,0,0.2362-0.0336,0.3406-0.1044c0.2797-0.1886,0.3533-0.5679,0.1647-0.8472
				l-2.5175-3.7318c1.056-0.2432,2.1944-0.5053,3.3949-0.7814l2.6366,3.9085c0.1178,0.1749,0.3105,0.2692,0.5066,0.2692
				c0.1175,0,0.2362-0.0336,0.3406-0.1044c0.2797-0.1886,0.3533-0.5679,0.1647-0.8472l-2.374-3.5192
				c1.114-0.2562,2.2636-0.5204,3.422-0.7864l2.5707,3.81c0.1178,0.1749,0.3105,0.2692,0.5066,0.2692
				c0.0335,0,0.0667-0.0091,0.1001-0.0147c0.0835-0.0139,0.166-0.0392,0.2409-0.0898c0.2793-0.1886,0.353-0.5679,0.1644-0.8476
				l-0.1903-0.2821l-2.117-3.1379c1.2747-0.2925,2.5497-0.5849,3.7914-0.8692c0.5703,1.1948,1.1868,2.2587,1.7711,3.1654
				l1.3226-0.3231c-0.7013-1.0507-1.4725-2.3558-2.1486-3.8467c-0.1257-0.2774-0.4314-0.4266-0.726-0.36
				c-8.533,1.9532-18.8814,4.3413-19.9648,4.5914c-0.0219,0.0041-0.0438,0.0092-0.0657,0.0159
				c-0.3311,0.0978-0.525,0.4403-0.4387,0.7745c0.0083,0.0311,0.0184,0.0609,0.0305,0.0898
				c0.3256,0.872,5.1579,12.9662,23.3895,16.618l1.1427-1.093C14.1674,58.8628,8.4513,49.087,7.19,46.4626z"/>
			<path class="st2" d="M89.917,27.3054c-0.0003-0.0005-0.0006-0.0011-0.0009-0.0016c-0.0023-0.0038-0.0043-0.0078-0.0066-0.0115
				c-0.0201-0.0329-0.0519-0.0547-0.0772-0.0831c-0.0281-0.0318-0.0489-0.0684-0.084-0.095
				c-0.0023-0.0017-0.0051-0.0019-0.0074-0.0036c-0.0328-0.0241-0.0703-0.0337-0.1057-0.0507
				c-0.0418-0.0202-0.0808-0.0458-0.1268-0.0566c-0.0028-0.0007-0.0049-0.0028-0.0077-0.0034
				C76.1721,24.0453,66.4801,32.824,63.9,35.4942l-1.0279-2.3087c-0.2165-0.486-0.6387-0.8285-1.1586-0.9396
				c-0.525-0.1124-1.0475,0.0292-1.4431,0.3841L45.1862,46.1655c-0.4885,0.4381-0.6714,1.1183-0.466,1.7329
				c0.2847,0.8526,0.8418,2.9982-0.1321,4.5057c-0.5387,0.8343-1.4982,1.385-2.8469,1.6508
				c0.0727,0.4218,0.1568,0.8406,0.2563,1.2549c1.6983-0.3366,2.9328-1.0748,3.6664-2.2105
				c1.2294-1.9033,0.6977-4.3295,0.2711-5.6066c-0.0432-0.1301-0.0016-0.2768,0.1063-0.3736l15.0843-13.5355
				c0.1206-0.1073,0.2527-0.0987,0.32-0.0851c0.0679,0.0146,0.1911,0.0606,0.2565,0.2082l1.4247,3.1998
				c0.0901,0.2022,0.2787,0.3435,0.4984,0.3736c0.2235,0.0317,0.4393-0.0559,0.5803-0.226
				c0.0465-0.0558,2.2215-2.6257,5.9987-5.0602c-0.5362,2.661-1.2628,8.8403,1.7587,14.789
				c-2.2311,1.8869-14.4824,11.733-28.3442,12.8897c0.2076,0.4036,0.426,0.8019,0.6619,1.1914
				c14.2537-1.4242,26.6642-11.5671,28.6092-13.2281c2.3355,0.7467,4.522,1.0291,6.4784,1.0291
				c3.3992,0,6.1076-0.8357,7.7123-1.4931c-1.2618,1.9927-2.8999,4.0418-5.0071,6.1108l-2.0011,1.7497
				c-0.139,0.1213-0.219,0.2971-0.219,0.4819v3.3515c0,0.4476-0.2482,0.8514-0.6482,1.0526l-18.5535,9.3479l-0.2165-3.554
				c-0.0127-0.207-0.1244-0.3949-0.3003-0.5047c-0.1752-0.1092-0.393-0.1263-0.5847-0.0483
				c-0.0427,0.0178-4.0866,1.6436-11.1969,0.5c0.662,0.5698,1.3602,1.0821,2.0814,1.5543c4.4019,0.4109,7.4078-0.2017,8.7727-0.5934
				l0.1676,2.7325c0,0.4184,0.2101,0.8037,0.5619,1.0304c0.1987,0.1289,0.4254,0.1949,0.6577,0.1949
				c0.179,0,0.3606-0.0387,0.5371-0.1187l18.65-9.3967c0.8342-0.4209,1.3529-1.2621,1.3529-2.1967v-3.0607l1.8094-1.5834
				C93.0376,44.3121,93.7187,33.5662,89.917,27.3054z M88.0468,45.3262c-0.0648,0.0384-6.5233,3.8026-14.8687,1.0939
				c-3.6321-6.9387-1.6976-14.5237-1.4756-15.3301c4.1541-2.3487,9.834-4.2241,16.5278-3.0284l-6.0783,8.0507
				c-0.2133,0.2825-0.1568,0.6841,0.1251,0.8971c0.1155,0.0873,0.2514,0.1295,0.3854,0.1295c0.1943,0,0.386-0.0879,0.5117-0.2546
				l6.1007-8.0803c1.6986,3.4528,2.557,9.5214-1.0987,16.4765C88.1326,45.2947,88.0877,45.3017,88.0468,45.3262z"/>
			<circle class="st2" cx="76.2477" cy="33.6456" r="1.502"/>
		</g>
	</g>
</g>
<g>
</g>
<g>
</g>
<g>
</g>
<g>
</g>
<g>
</g>
<g>
</g>
</svg>
